<svg width="78" height="78" viewBox="0 0 78 78" fill="none" xmlns="http://www.w3.org/2000/svg">
<path d="M62.5457 42.8086C62.7477 42.8086 62.9414 42.7283 63.0843 42.5855C63.2271 42.4426 63.3074 42.2489 63.3074 42.0469V40.5679C63.3048 39.048 62.9919 37.5447 62.3878 36.15C61.7837 34.7553 60.9012 33.4987 59.7943 32.4571C59.647 32.3189 59.4508 32.2448 59.2489 32.2512C59.0469 32.2576 58.8558 32.3439 58.7176 32.4912C58.5793 32.6386 58.5052 32.8348 58.5116 33.0367C58.518 33.2386 58.6044 33.4297 58.7517 33.568C59.7131 34.4621 60.4789 35.5457 61.0007 36.7505C61.5226 37.9552 61.7893 39.255 61.7839 40.5679V42.0469C61.7839 42.2489 61.8642 42.4426 62.007 42.5855C62.1499 42.7283 62.3436 42.8086 62.5457 42.8086Z" fill="#A1876C"/>
<path d="M57.4287 30.7582C57.3404 30.7059 57.2424 30.672 57.1406 30.6585C57.0388 30.6451 56.9354 30.6524 56.8365 30.6799C56.7376 30.7074 56.6453 30.7547 56.5651 30.8188C56.4849 30.8829 56.4185 30.9625 56.3699 31.0529C56.3213 31.1434 56.2914 31.2427 56.2822 31.3449C56.2729 31.4472 56.2844 31.5502 56.316 31.6479C56.3475 31.7456 56.3985 31.8359 56.4658 31.9134C56.5332 31.9909 56.6155 32.0539 56.7078 32.0988C56.824 32.1614 56.9392 32.226 57.0533 32.2926C57.2271 32.3945 57.4342 32.4234 57.6292 32.373C57.8242 32.3226 57.9913 32.197 58.094 32.0237C58.1966 31.8503 58.2265 31.6434 58.1769 31.4482C58.1274 31.2529 58.0025 31.0852 57.8297 30.9818C57.6968 30.905 57.5632 30.8305 57.4287 30.7582Z" fill="#A1876C"/>
<path d="M57.9666 58.9302H10.5627V47.6671C10.5632 47.1006 10.7885 46.5574 11.189 46.1568C11.5895 45.7561 12.1327 45.5307 12.6992 45.5301H41.5135C41.7155 45.5301 41.9093 45.4498 42.0521 45.307C42.195 45.1641 42.2752 44.9704 42.2752 44.7684C42.2752 44.5663 42.195 44.3726 42.0521 44.2297C41.9093 44.0869 41.7155 44.0066 41.5135 44.0066H27.4065L24.15 40.7501C24.0357 40.6359 23.9716 40.4809 23.9716 40.3193C23.9716 40.1577 24.0357 40.0028 24.15 39.8885L27.9982 36.0403C28.0548 35.9836 28.122 35.9387 28.196 35.908C28.2699 35.8773 28.3492 35.8616 28.4293 35.8616C28.5094 35.8616 28.5887 35.8773 28.6627 35.908C28.7366 35.9387 28.8039 35.9836 28.8604 36.0403L32.7086 39.8885C32.8229 40.0028 32.8871 40.1577 32.8871 40.3193C32.8871 40.4809 32.8229 40.6359 32.7086 40.7501C32.6379 40.8209 32.5819 40.9049 32.5436 40.9974C32.5054 41.0898 32.4858 41.1889 32.4858 41.2889C32.4859 41.389 32.5056 41.488 32.544 41.5805C32.5823 41.6729 32.6385 41.7568 32.7093 41.8275C32.78 41.8982 32.8641 41.9543 32.9565 41.9925C33.049 42.0307 33.148 42.0504 33.2481 42.0503C33.3481 42.0503 33.4472 42.0305 33.5396 41.9922C33.632 41.9538 33.7159 41.8977 33.7866 41.8269C33.9847 41.6288 34.1418 41.3937 34.249 41.1349C34.3562 40.8762 34.4114 40.5988 34.4114 40.3187C34.4114 40.0386 34.3562 39.7612 34.249 39.5025C34.1418 39.2437 33.9847 39.0085 33.7866 38.8105L29.9384 34.9623C29.5321 34.5744 28.992 34.3579 28.4302 34.3579C27.8685 34.3579 27.3283 34.5744 26.922 34.9623L23.0726 38.8111C22.8745 39.0092 22.7174 39.2443 22.6102 39.5031C22.503 39.7618 22.4478 40.0392 22.4478 40.3193C22.4478 40.5994 22.503 40.8768 22.6102 41.1355C22.7174 41.3943 22.8745 41.6295 23.0726 41.8275L25.2517 44.0066H16.2159V40.5679C16.219 38.0236 17.2311 35.5844 19.0302 33.7854C20.8294 31.9864 23.2687 30.9744 25.813 30.9715H52.1867C53.0005 30.9709 53.8111 31.0732 54.5992 31.2762C54.6967 31.3031 54.7985 31.3104 54.8988 31.2976C54.9991 31.2848 55.0958 31.2521 55.1833 31.2015C55.2708 31.151 55.3474 31.0835 55.4086 31.003C55.4698 30.9225 55.5143 30.8306 55.5397 30.7328C55.565 30.6349 55.5706 30.533 55.5561 30.4329C55.5416 30.3329 55.5073 30.2367 55.4553 30.15C55.4033 30.0633 55.3345 29.9879 55.253 29.928C55.1716 29.8682 55.079 29.8252 54.9807 29.8015C54.0681 29.5659 53.1293 29.447 52.1867 29.4475H25.813C22.8646 29.4507 20.038 30.6233 17.9532 32.7081C15.8684 34.7929 14.6957 37.6196 14.6925 40.5679V44.0066H12.6986C11.7282 44.0078 10.7978 44.3938 10.1117 45.0801C9.42555 45.7663 9.03966 46.6967 9.0387 47.6671V59.6919C9.0387 59.894 9.11895 60.0877 9.2618 60.2306C9.40465 60.3734 9.59839 60.4537 9.80042 60.4537H12.634V68.0099C12.634 68.2119 12.7143 68.4057 12.8571 68.5485C13 68.6914 13.1937 68.7716 13.3957 68.7716H17.5114C17.7135 68.7716 17.9072 68.6914 18.0501 68.5485C18.1929 68.4057 18.2732 68.2119 18.2732 68.0099V62.2708C18.2732 62.0688 18.1929 61.875 18.0501 61.7322C17.9072 61.5893 17.7135 61.5091 17.5114 61.5091C17.3094 61.5091 17.1157 61.5893 16.9728 61.7322C16.83 61.875 16.7497 62.0688 16.7497 62.2708V67.2482H14.1581V60.4537H21.0897V63.5615C21.0897 63.7635 21.1699 63.9572 21.3128 64.1001C21.4556 64.2429 21.6494 64.3232 21.8514 64.3232H25.2158C25.4178 64.3232 25.6115 64.2429 25.7544 64.1001C25.8972 63.9572 25.9775 63.7635 25.9775 63.5615V60.4537H52.0222V63.5615C52.0222 63.7635 52.1024 63.9572 52.2453 64.1001C52.3881 64.2429 52.5819 64.3232 52.7839 64.3232H56.1483C56.3503 64.3232 56.544 64.2429 56.6869 64.1001C56.8297 63.9572 56.91 63.7635 56.91 63.5615V60.4537H57.9666C58.1687 60.4537 58.3624 60.3734 58.5052 60.2306C58.6481 60.0877 58.7284 59.894 58.7284 59.6919C58.7284 59.4899 58.6481 59.2962 58.5052 59.1533C58.3624 59.0105 58.1687 58.9302 57.9666 58.9302ZM24.4541 62.7998H22.6131V60.4537H24.4541V62.7998ZM55.3865 62.7998H53.5456V60.4537H55.3865V62.7998Z" fill="#A1876C"/>
<path d="M65.3012 44.0066H52.7475L54.9272 41.8275C55.1253 41.6295 55.2824 41.3943 55.3896 41.1355C55.4968 40.8768 55.552 40.5994 55.552 40.3193C55.552 40.0392 55.4968 39.7618 55.3896 39.5031C55.2824 39.2443 55.1253 39.0092 54.9272 38.8111L51.079 34.9629C50.881 34.7648 50.6458 34.6077 50.3871 34.5005C50.1283 34.3933 49.8509 34.3381 49.5708 34.3381C49.2907 34.3381 49.0133 34.3933 48.7546 34.5005C48.4958 34.6077 48.2607 34.7648 48.0626 34.9629L47.4733 35.5522C47.3304 35.695 47.2501 35.8888 47.25 36.0909C47.2499 36.293 47.3302 36.4869 47.473 36.6298C47.6159 36.7728 47.8097 36.8531 48.0118 36.8532C48.2139 36.8532 48.4078 36.773 48.5507 36.6301L49.14 36.0409C49.1966 35.9842 49.2638 35.9393 49.3378 35.9086C49.4117 35.8779 49.491 35.8622 49.5711 35.8622C49.6512 35.8622 49.7305 35.8779 49.8045 35.9086C49.8784 35.9393 49.9457 35.9842 50.0023 36.0409L53.8505 39.8891C53.9647 40.0034 54.0289 40.1583 54.0289 40.3199C54.0289 40.4815 53.9647 40.6365 53.8505 40.7507L50.594 44.0072H48.5483L45.2918 40.7507C45.2351 40.6941 45.1902 40.6269 45.1595 40.553C45.1288 40.479 45.1131 40.3997 45.1131 40.3196C45.1131 40.2395 45.1288 40.1602 45.1595 40.0863C45.1902 40.0123 45.2351 39.9451 45.2918 39.8885L46.6464 38.5338C46.7172 38.4631 46.7733 38.3791 46.8116 38.2867C46.8498 38.1943 46.8696 38.0952 46.8696 37.9951C46.8696 37.8951 46.8498 37.796 46.8116 37.7036C46.7733 37.6112 46.7172 37.5272 46.6464 37.4565C46.5757 37.3857 46.4917 37.3296 46.3993 37.2913C46.3068 37.253 46.2078 37.2333 46.1077 37.2333C46.0077 37.2333 45.9086 37.253 45.8162 37.2913C45.7238 37.3296 45.6398 37.3857 45.569 37.4565L44.2144 38.8111C44.0163 39.0092 43.8592 39.2443 43.752 39.5031C43.6448 39.7618 43.5896 40.0392 43.5896 40.3193C43.5896 40.5994 43.6448 40.8768 43.752 41.1355C43.8592 41.3943 44.0163 41.6295 44.2144 41.8275L46.3935 44.0066H44.5989C44.3969 44.0066 44.2032 44.0869 44.0603 44.2297C43.9175 44.3726 43.8372 44.5663 43.8372 44.7684C43.8372 44.9704 43.9175 45.1641 44.0603 45.307C44.2032 45.4498 44.3969 45.5301 44.5989 45.5301H65.3012C65.8678 45.5307 66.4109 45.7561 66.8114 46.1568C67.212 46.5574 67.4372 47.1006 67.4377 47.6671V54.082H15.4543C15.2523 54.082 15.0586 54.1623 14.9157 54.3051C14.7729 54.448 14.6926 54.6417 14.6926 54.8438C14.6926 55.0458 14.7729 55.2395 14.9157 55.3824C15.0586 55.5252 15.2523 55.6055 15.4543 55.6055H67.4377V58.9302H60.4908C60.2888 58.9302 60.095 59.0105 59.9522 59.1533C59.8093 59.2962 59.7291 59.4899 59.7291 59.6919V68.0093C59.7291 68.2113 59.8093 68.4051 59.9522 68.5479C60.095 68.6908 60.2888 68.771 60.4908 68.771H64.6065C64.8086 68.771 65.0023 68.6908 65.1451 68.5479C65.288 68.4051 65.3683 68.2113 65.3683 68.0093V62.7388C65.3683 62.5368 65.288 62.343 65.1451 62.2002C65.0023 62.0573 64.8086 61.9771 64.6065 61.9771C64.4045 61.9771 64.2108 62.0573 64.0679 62.2002C63.9251 62.343 63.8448 62.5368 63.8448 62.7388V67.2482H61.2525V60.4537H68.1994C68.4014 60.4537 68.5952 60.3734 68.738 60.2306C68.8809 60.0877 68.9611 59.894 68.9611 59.6919V47.6671C68.9602 46.6967 68.5743 45.7663 67.8881 45.0801C67.202 44.3938 66.2716 44.0078 65.3012 44.0066Z" fill="#A1876C"/>
<path d="M12.8481 54.082C12.6461 54.082 12.4524 54.1623 12.3095 54.3051C12.1667 54.448 12.0864 54.6417 12.0864 54.8438C12.0864 55.0458 12.1667 55.2395 12.3095 55.3824C12.4524 55.5252 12.6461 55.6055 12.8481 55.6055H13.1016C13.3037 55.6055 13.4974 55.5252 13.6403 55.3824C13.7831 55.2395 13.8634 55.0458 13.8634 54.8438C13.8634 54.6417 13.7831 54.448 13.6403 54.3051C13.4974 54.1623 13.3037 54.082 13.1016 54.082H12.8481Z" fill="#A1876C"/>
<path d="M35.4711 10.5629H35.727C35.929 10.5629 36.1228 10.4827 36.2656 10.3398C36.4085 10.197 36.4887 10.0032 36.4887 9.80121C36.4887 9.59919 36.4085 9.40544 36.2656 9.26259C36.1228 9.11974 35.929 9.03949 35.727 9.03949H35.4711C35.2691 9.03949 35.0753 9.11974 34.9325 9.26259C34.7896 9.40544 34.7094 9.59919 34.7094 9.80121C34.7094 10.0032 34.7896 10.197 34.9325 10.3398C35.0753 10.4827 35.2691 10.5629 35.4711 10.5629Z" fill="#A1876C"/>
<path d="M18.7273 20.5664H35.7288C35.9309 20.5664 36.1246 20.4862 36.2675 20.3433C36.4103 20.2005 36.4906 20.0067 36.4906 19.8047V13.0254C36.4906 12.8234 36.4103 12.6296 36.2675 12.4868C36.1246 12.3439 35.9309 12.2637 35.7288 12.2637C35.5268 12.2637 35.3331 12.3439 35.1902 12.4868C35.0474 12.6296 34.9671 12.8234 34.9671 13.0254V19.043H19.489V10.5629H32.7289C32.9309 10.5629 33.1247 10.4827 33.2675 10.3398C33.4104 10.197 33.4906 10.0032 33.4906 9.80121C33.4906 9.59919 33.4104 9.40544 33.2675 9.26259C33.1247 9.11974 32.9309 9.03949 32.7289 9.03949H18.7273C18.5253 9.03949 18.3315 9.11974 18.1887 9.26259C18.0458 9.40544 17.9656 9.59919 17.9656 9.80121V19.8047C17.9656 20.0067 18.0458 20.2005 18.1887 20.3433C18.3315 20.4862 18.5253 20.5664 18.7273 20.5664Z" fill="#A1876C"/>
<path d="M42.2734 25.5687H59.275C59.477 25.5687 59.6708 25.4885 59.8136 25.3456C59.9565 25.2028 60.0367 25.009 60.0367 24.807V14.8029C60.0367 14.6009 59.9565 14.4072 59.8136 14.2643C59.6708 14.1215 59.477 14.0412 59.275 14.0412H42.2734C42.0714 14.0412 41.8777 14.1215 41.7348 14.2643C41.592 14.4072 41.5117 14.6009 41.5117 14.8029V24.807C41.5117 24.9071 41.5314 25.0061 41.5697 25.0985C41.608 25.1909 41.6641 25.2749 41.7348 25.3456C41.8056 25.4164 41.8895 25.4725 41.9819 25.5108C42.0744 25.549 42.1734 25.5687 42.2734 25.5687ZM43.0352 15.5646H58.5133V24.0453H43.0352V15.5646Z" fill="#A1876C"/>
</svg>
