<svg width="83" height="83" viewBox="0 0 83 83" fill="none" xmlns="http://www.w3.org/2000/svg">
<path d="M62.5626 34.7951H61.4272V31.4362C61.426 30.4649 61.0396 29.5337 60.3528 28.8469C59.666 28.1601 58.7348 27.7737 57.7635 27.7725H30.3346V14.914C30.3347 14.758 30.3696 14.604 30.4366 14.4632C30.5037 14.3224 30.6013 14.1982 30.7223 14.0998C30.8433 14.0014 30.9847 13.9312 31.1362 13.8942C31.2878 13.8573 31.4457 13.8546 31.5984 13.8862C31.8407 13.9469 32.0552 14.088 32.2069 14.2865C32.3585 14.485 32.4382 14.7291 32.4329 14.9789V23.7166C32.4329 24.4246 32.7142 25.1036 33.2148 25.6043C33.7155 26.1049 34.3945 26.3862 35.1025 26.3862C35.8106 26.3862 36.4896 26.1049 36.9902 25.6043C37.4909 25.1036 37.7722 24.4246 37.7722 23.7166V12.2885C37.7712 12.1463 37.7995 12.0053 37.8552 11.8745C37.911 11.7436 37.9931 11.6257 38.0964 11.5279C38.1988 11.4283 38.321 11.3514 38.455 11.3022C38.5891 11.2529 38.732 11.2324 38.8745 11.2419C39.1543 11.2742 39.4117 11.4107 39.5953 11.6243C39.7789 11.8378 39.8753 12.1127 39.8653 12.3942V20.4348C39.8653 21.1428 40.1466 21.8219 40.6472 22.3225C41.1479 22.8232 41.8269 23.1044 42.5349 23.1044C43.243 23.1044 43.922 22.8232 44.4226 22.3225C44.9233 21.8219 45.2045 21.1428 45.2045 20.4348V16.989C45.1945 16.7075 45.291 16.4326 45.4746 16.2191C45.6582 16.0055 45.9156 15.869 46.1954 15.8367C46.3378 15.8275 46.4807 15.8482 46.6147 15.8974C46.7487 15.9467 46.8709 16.0234 46.9735 16.1227C47.0768 16.2205 47.1589 16.3385 47.2146 16.4693C47.2704 16.6002 47.2987 16.7411 47.2977 16.8833V22.1298C47.2977 22.3448 47.3831 22.551 47.5351 22.703C47.6871 22.855 47.8933 22.9404 48.1083 22.9404C48.3232 22.9404 48.5294 22.855 48.6814 22.703C48.8334 22.551 48.9188 22.3448 48.9188 22.1298V16.8814C48.9188 16.5188 48.8449 16.1599 48.7017 15.8268C48.5585 15.4937 48.3489 15.1932 48.0858 14.9437C47.8226 14.6942 47.5114 14.501 47.1711 14.3757C46.8309 14.2504 46.4686 14.1957 46.1065 14.215C45.4101 14.2647 44.7594 14.58 44.2887 15.0958C43.8181 15.6115 43.5635 16.2884 43.5776 16.9864V20.4355C43.5776 20.7135 43.4672 20.9802 43.2705 21.1769C43.0739 21.3735 42.8072 21.484 42.5291 21.484C42.251 21.484 41.9843 21.3735 41.7877 21.1769C41.591 20.9802 41.4806 20.7135 41.4806 20.4355V12.3948C41.4946 11.6968 41.2401 11.02 40.7695 10.5042C40.2988 9.98845 39.6481 9.67314 38.9517 9.62341C38.5892 9.60281 38.2264 9.65693 37.8857 9.78242C37.545 9.90791 37.2338 10.1021 36.9713 10.3529C36.709 10.6028 36.5001 10.9033 36.3571 11.2362C36.2141 11.5691 36.1401 11.9275 36.1394 12.2898V23.7166C36.1394 23.9946 36.0289 24.2613 35.8323 24.458C35.6357 24.6546 35.369 24.7651 35.0909 24.7651C34.8128 24.7651 34.5461 24.6546 34.3495 24.458C34.1528 24.2613 34.0423 23.9946 34.0423 23.7166V14.9789C34.0517 14.3528 33.8436 13.7428 33.4535 13.2531C33.0634 12.7633 32.5155 12.424 31.9032 12.293C31.5159 12.2166 31.1166 12.2269 30.7338 12.3232C30.351 12.4195 29.9943 12.5995 29.6894 12.8501C29.3845 13.1007 29.1389 13.4158 28.9702 13.7726C28.8016 14.1295 28.7141 14.5193 28.7141 14.914V27.7725H20.4569C19.4858 27.7739 18.5549 28.1604 17.8683 28.8472C17.1817 29.534 16.7956 30.4651 16.7946 31.4362V39.7751C16.7958 40.7462 17.1821 41.6772 17.8688 42.3639C18.5554 43.0506 19.4865 43.4369 20.4576 43.4381H57.7635C57.9785 43.4381 58.1846 43.3527 58.3366 43.2007C58.4886 43.0487 58.574 42.8426 58.574 42.6276C58.574 42.4126 58.4886 42.2065 58.3366 42.0544C58.1846 41.9024 57.9785 41.817 57.7635 41.817H20.4569C19.9157 41.8162 19.3969 41.6008 19.0142 41.218C18.6316 40.8352 18.4163 40.3163 18.4156 39.7751V34.3503C19.5349 35.2782 21.3985 36.1374 24.5025 36.1374C25.1729 36.1355 25.8428 36.0992 26.5094 36.0284C26.7805 36.0003 27.0598 35.9664 27.3472 35.9266C27.5602 35.8971 27.7527 35.7841 27.8824 35.6126C28.0121 35.441 28.0684 35.225 28.0388 35.012C28.0092 34.799 27.8962 34.6065 27.7247 34.4768C27.5532 34.3471 27.3372 34.2909 27.1242 34.3205C26.8557 34.3576 26.595 34.3896 26.3422 34.4164C19.9161 35.0804 18.5985 32.2623 18.4156 31.7578V31.4336C18.4162 30.8922 18.6314 30.373 19.0142 29.9901C19.3971 29.6072 19.9161 29.3917 20.4576 29.391H57.7635C58.305 29.3917 58.8241 29.6071 59.2071 29.99C59.59 30.373 59.8054 30.8921 59.8061 31.4336V31.9978C56.5762 33.6266 51.3433 33.9826 47.1187 32.82C42.1614 31.4583 38.3746 32.2137 33.5794 33.174L33.3518 33.2194C33.2456 33.2384 33.1444 33.2784 33.0539 33.337C32.9634 33.3957 32.8856 33.4718 32.8249 33.5609C32.7642 33.65 32.7219 33.7503 32.7004 33.8559C32.6789 33.9616 32.6788 34.0704 32.6999 34.1761C32.7211 34.2819 32.7631 34.3823 32.8235 34.4716C32.8839 34.5609 32.9615 34.6372 33.0518 34.6961C33.1421 34.755 33.2433 34.7953 33.3493 34.8146C33.4554 34.834 33.5642 34.832 33.6695 34.8087L33.8971 34.7633C38.6612 33.8101 42.1024 33.1202 46.6882 34.3827C48.5463 34.8772 50.4619 35.1229 52.3847 35.1135C54.9215 35.1486 57.4413 34.6942 59.8061 33.7751V39.7751C59.8061 39.9901 59.8915 40.1963 60.0435 40.3483C60.1955 40.5003 60.4016 40.5857 60.6166 40.5857C60.8316 40.5857 61.0378 40.5003 61.1898 40.3483C61.3418 40.1963 61.4272 39.9901 61.4272 39.7751V36.4162H62.5626C63.0986 36.4171 63.6125 36.6304 63.9915 37.0096C64.3705 37.3887 64.5837 37.9026 64.5844 38.4387V44.9367C64.5845 45.4324 64.4026 45.9109 64.0734 46.2814C63.7441 46.6519 63.2902 46.8887 62.798 46.9468L41.858 49.4109C40.8797 49.5171 39.9752 49.9813 39.3184 50.7141C38.6616 51.4468 38.2989 52.3966 38.3 53.3806V53.4072H36.4772C36.3705 53.4069 36.2648 53.4276 36.1661 53.4682C36.0674 53.5089 35.9777 53.5686 35.9022 53.6439C35.8266 53.7193 35.7667 53.8089 35.7258 53.9074C35.685 54.006 35.664 54.1117 35.6641 54.2184V69.9372C35.6641 70.8506 36.0269 71.7265 36.6728 72.3724C37.3186 73.0182 38.1946 73.381 39.1079 73.381C40.0213 73.381 40.8973 73.0182 41.5431 72.3724C42.189 71.7265 42.5518 70.8506 42.5518 69.9372V57.3867C42.5518 57.1717 42.4664 56.9655 42.3144 56.8135C42.1624 56.6615 41.9562 56.5761 41.7412 56.5761C41.5263 56.5761 41.3201 56.6615 41.1681 56.8135C41.0161 56.9655 40.9307 57.1717 40.9307 57.3867V69.9378C40.9307 70.4213 40.7387 70.8849 40.3968 71.2267C40.055 71.5686 39.5914 71.7606 39.1079 71.7606C38.6245 71.7606 38.1609 71.5686 37.8191 71.2267C37.4772 70.8849 37.2852 70.4213 37.2852 69.9378V55.029H41.7412C41.9562 55.029 42.1624 54.9436 42.3144 54.7916C42.4664 54.6396 42.5518 54.4334 42.5518 54.2184C42.5518 54.0034 42.4664 53.7973 42.3144 53.6453C42.1624 53.4933 41.9562 53.4079 41.7412 53.4079H39.9204V53.3813C39.9201 52.7955 40.1366 52.2303 40.5282 51.7947C40.9199 51.3591 41.4589 51.084 42.0415 51.0223L62.986 48.5582C63.8732 48.4541 64.6913 48.0277 65.2849 47.3601C65.8784 46.6924 66.206 45.83 66.2055 44.9367V38.4387C66.2045 37.4728 65.8204 36.5467 65.1374 35.8637C64.4545 35.1806 63.5285 34.7963 62.5626 34.7951Z" fill="#A1876C"/>
<path d="M48.114 24.2087C47.899 24.2087 47.6929 24.2941 47.5409 24.4461C47.3889 24.5982 47.3035 24.8043 47.3035 25.0193V25.3435C47.3035 25.5585 47.3889 25.7646 47.5409 25.9166C47.6929 26.0687 47.899 26.1541 48.114 26.1541C48.329 26.1541 48.5352 26.0687 48.6872 25.9166C48.8392 25.7646 48.9246 25.5585 48.9246 25.3435V25.0193C48.9246 24.8043 48.8392 24.5982 48.6872 24.4461C48.5352 24.2941 48.329 24.2087 48.114 24.2087Z" fill="#A1876C"/>
<path d="M30.1133 33.8432C29.9143 33.8792 29.736 33.9883 29.6133 34.1491C29.4906 34.3099 29.4325 34.5107 29.4503 34.7121C29.4681 34.9135 29.5605 35.101 29.7095 35.2378C29.8584 35.3746 30.0531 35.4507 30.2553 35.4513C30.3034 35.4512 30.3513 35.4469 30.3986 35.4384L30.9031 35.3469C31.1145 35.308 31.3019 35.1866 31.4238 35.0096C31.5458 34.8325 31.5924 34.6143 31.5535 34.4028C31.5145 34.1914 31.3932 34.0041 31.2161 33.8821C31.0391 33.7601 30.8208 33.7135 30.6094 33.7524L30.1133 33.8432Z" fill="#A1876C"/>
</svg>
