<svg width="83" height="83" viewBox="0 0 83 83" fill="none" xmlns="http://www.w3.org/2000/svg">
<path d="M70.7971 41.2938H37.7585V39.6909H47.1732C47.2797 39.691 47.3852 39.6701 47.4836 39.6294C47.582 39.5887 47.6714 39.529 47.7468 39.4537C47.8221 39.3784 47.8819 39.2891 47.9226 39.1907C47.9634 39.0923 47.9844 38.9868 47.9844 38.8804V21.5807C47.9844 21.3657 47.899 21.1596 47.747 21.0075C47.595 20.8555 47.3888 20.7701 47.1738 20.7701H18.7146C18.4996 20.7701 18.2934 20.8555 18.1414 21.0075C17.9894 21.1596 17.904 21.3657 17.904 21.5807V38.8804C17.904 39.0953 17.9894 39.3015 18.1414 39.4535C18.2934 39.6055 18.4996 39.6909 18.7146 39.6909H28.1286V41.2945H12.203C11.6152 41.2945 11.0515 41.5279 10.6358 41.9434C10.22 42.3589 9.98631 42.9224 9.98596 43.5102V45.1118C9.98648 45.699 10.2199 46.262 10.6351 46.6773C11.0502 47.0926 11.6132 47.3262 12.2004 47.3269H13.3494V72.5719C13.3494 72.7868 13.4348 72.993 13.5868 73.145C13.7388 73.297 13.945 73.3824 14.16 73.3824H17.8975C18.1125 73.3824 18.3187 73.297 18.4707 73.145C18.6227 72.993 18.7081 72.7868 18.7081 72.5719V49.7572C18.7081 49.5423 18.6227 49.3361 18.4707 49.1841C18.3187 49.0321 18.1125 48.9467 17.8975 48.9467C17.6826 48.9467 17.4764 49.0321 17.3244 49.1841C17.1724 49.3361 17.087 49.5423 17.087 49.7572V71.76H14.9737V47.3256H48.485V67.1782C48.485 67.3931 48.5704 67.5993 48.7224 67.7513C48.8744 67.9033 49.0806 67.9887 49.2955 67.9887H64.2887V72.5706C64.2887 72.7855 64.3741 72.9917 64.5261 73.1437C64.6781 73.2957 64.8843 73.3811 65.0993 73.3811H68.8368C69.0518 73.3811 69.258 73.2957 69.41 73.1437C69.562 72.9917 69.6474 72.7855 69.6474 72.5706V52.8075C69.6474 52.5925 69.562 52.3864 69.41 52.2343C69.258 52.0823 69.0518 51.9969 68.8368 51.9969C68.6219 51.9969 68.4157 52.0823 68.2637 52.2343C68.1117 52.3864 68.0263 52.5925 68.0263 52.8075V71.7607H65.9098V47.3256H70.7964C71.3836 47.3249 71.9466 47.0913 72.3617 46.676C72.7769 46.2607 73.0103 45.6977 73.0108 45.1105V43.5102C73.0107 42.9229 72.7775 42.3596 72.3624 41.9441C71.9474 41.5286 71.3844 41.2947 70.7971 41.2938ZM46.3633 38.0698H45.1961V22.3912H46.3633V38.0698ZM19.5251 22.3912H43.575V38.0698H22.3147V28.0839C22.3147 27.8689 22.2293 27.6627 22.0773 27.5107C21.9253 27.3587 21.7191 27.2733 21.5042 27.2733C21.2892 27.2733 21.083 27.3587 20.931 27.5107C20.779 27.6627 20.6936 27.8689 20.6936 28.0839V38.0698H19.5264L19.5251 22.3912ZM29.7497 39.6909H36.1374V41.2945H29.7497V39.6909ZM71.393 45.1105C71.3928 45.2679 71.3303 45.4188 71.2191 45.5301C71.1078 45.6415 70.957 45.7042 70.7997 45.7045H55.5497C55.3347 45.7045 55.1286 45.7899 54.9766 45.9419C54.8246 46.0939 54.7392 46.3001 54.7392 46.5151C54.7392 46.73 54.8246 46.9362 54.9766 47.0882C55.1286 47.2402 55.3347 47.3256 55.5497 47.3256H64.2887V66.3676H50.1054V57.6572H62.5055C62.7205 57.6572 62.9266 57.5718 63.0786 57.4197C63.2307 57.2677 63.316 57.0616 63.316 56.8466C63.316 56.6316 63.2307 56.4255 63.0786 56.2735C62.9266 56.1215 62.7205 56.0361 62.5055 56.0361H50.1054V47.3256H51.9859C52.2009 47.3256 52.407 47.2402 52.559 47.0882C52.7111 46.9362 52.7964 46.73 52.7964 46.5151C52.7964 46.3001 52.7111 46.0939 52.559 45.9419C52.407 45.7899 52.2009 45.7045 51.9859 45.7045H12.203C12.0456 45.7042 11.8948 45.6415 11.7836 45.5301C11.6724 45.4188 11.6098 45.2679 11.6096 45.1105V43.5102C11.6098 43.3528 11.6724 43.2019 11.7836 43.0906C11.8948 42.9793 12.0456 42.9166 12.203 42.9162H70.7964C70.9538 42.9166 71.1046 42.9793 71.2158 43.0906C71.327 43.2019 71.3896 43.3528 71.3897 43.5102L71.393 45.1105Z" fill="#A1876C"/>
<path d="M68.8368 48.9467C68.6218 48.9467 68.4157 49.032 68.2637 49.1841C68.1116 49.3361 68.0262 49.5422 68.0262 49.7572V50.0918C68.0262 50.3068 68.1116 50.5129 68.2637 50.6649C68.4157 50.8169 68.6218 50.9023 68.8368 50.9023C69.0518 50.9023 69.2579 50.8169 69.4099 50.6649C69.5619 50.5129 69.6473 50.3068 69.6473 50.0918V49.7572C69.6473 49.5422 69.5619 49.3361 69.4099 49.1841C69.2579 49.032 69.0518 48.9467 68.8368 48.9467Z" fill="#A1876C"/>
<path d="M57.1973 60.6613C56.93 60.6613 56.6687 60.7406 56.4465 60.8891C56.2243 61.0375 56.0511 61.2486 55.9488 61.4955C55.8465 61.7424 55.8198 62.0142 55.8719 62.2763C55.9241 62.5384 56.0528 62.7792 56.2417 62.9682C56.4307 63.1572 56.6715 63.2859 56.9336 63.338C57.1958 63.3902 57.4675 63.3634 57.7144 63.2611C57.9613 63.1589 58.1724 62.9856 58.3209 62.7634C58.4694 62.5412 58.5486 62.2799 58.5486 62.0127C58.5483 61.6544 58.4058 61.3108 58.1524 61.0575C57.8991 60.8041 57.5556 60.6617 57.1973 60.6613Z" fill="#A1876C"/>
<path d="M57.1974 53.0318C57.4647 53.0319 57.726 52.9528 57.9483 52.8043C58.1706 52.6559 58.3439 52.4449 58.4463 52.198C58.5487 51.9511 58.5755 51.6794 58.5235 51.4172C58.4714 51.155 58.3428 50.9142 58.1538 50.7251C57.9648 50.5361 57.724 50.4073 57.4619 50.3551C57.1997 50.3029 56.928 50.3296 56.681 50.4319C56.4341 50.5342 56.223 50.7074 56.0745 50.9296C55.926 51.1519 55.8467 51.4131 55.8467 51.6804C55.847 52.0386 55.9894 52.382 56.2426 52.6354C56.4958 52.8887 56.8392 53.0313 57.1974 53.0318Z" fill="#A1876C"/>
<path d="M21.504 26.0186C21.719 26.0186 21.9252 25.9332 22.0772 25.7812C22.2292 25.6292 22.3146 25.423 22.3146 25.208V24.8229C22.3146 24.6079 22.2292 24.4017 22.0772 24.2497C21.9252 24.0977 21.719 24.0123 21.504 24.0123C21.2891 24.0123 21.0829 24.0977 20.9309 24.2497C20.7789 24.4017 20.6935 24.6079 20.6935 24.8229V25.208C20.6935 25.423 20.7789 25.6292 20.9309 25.7812C21.0829 25.9332 21.2891 26.0186 21.504 26.0186Z" fill="#A1876C"/>
<path d="M52.9527 22.3912H55.1924V24.2905C55.1924 24.5054 55.2778 24.7116 55.4298 24.8636C55.5818 25.0156 55.788 25.101 56.003 25.101C56.2179 25.101 56.4241 25.0156 56.5761 24.8636C56.7281 24.7116 56.8135 24.5054 56.8135 24.2905V22.3912H68.3401V24.2905C68.3401 24.5054 68.4255 24.7116 68.5775 24.8636C68.7295 25.0156 68.9357 25.101 69.1507 25.101C69.3656 25.101 69.5718 25.0156 69.7238 24.8636C69.8758 24.7116 69.9612 24.5054 69.9612 24.2905V22.3912H72.2003C72.4153 22.3912 72.6214 22.3058 72.7734 22.1538C72.9254 22.0018 73.0108 21.7956 73.0108 21.5806C73.0108 21.3657 72.9254 21.1595 72.7734 21.0075C72.6214 20.8555 72.4153 20.7701 72.2003 20.7701H65.8813L66.5005 20.4595C66.5957 20.4118 66.6805 20.3458 66.7502 20.2653C66.8198 20.1848 66.873 20.0913 66.9065 19.9903C66.94 19.8892 66.9533 19.7826 66.9457 19.6764C66.938 19.5702 66.9094 19.4666 66.8617 19.3714L62.1929 10.0657C62.0964 9.87361 61.9277 9.72768 61.7236 9.65996C61.5196 9.59224 61.2971 9.60826 61.1049 9.70451L59.323 10.5987C59.2478 10.5225 59.1583 10.462 59.0595 10.4207C58.9608 10.3794 58.8548 10.3581 58.7478 10.3581H55.7008C55.4858 10.3581 55.2796 10.4435 55.1276 10.5955C54.9756 10.7475 54.8902 10.9537 54.8902 11.1687V20.7701H52.9514C52.7364 20.7701 52.5303 20.8555 52.3783 21.0075C52.2263 21.1595 52.1409 21.3657 52.1409 21.5806C52.1409 21.7956 52.2263 22.0018 52.3783 22.1538C52.5303 22.3058 52.7364 22.3912 52.9514 22.3912H52.9527ZM59.5564 20.7701V15.2162L62.3447 20.7701H59.5564ZM61.1055 11.5169L65.048 19.3734L63.7771 20.0114L59.8333 12.155L61.1055 11.5169ZM56.5133 11.9792H57.9353V20.7701H56.5126L56.5133 11.9792Z" fill="#A1876C"/>
</svg>
