<svg width="25" height="19" viewBox="0 0 25 19" fill="none" xmlns="http://www.w3.org/2000/svg">
<path d="M21.9477 0.978027H3.05733C2.24668 0.978662 1.46943 1.28349 0.896212 1.82558C0.322997 2.36768 0.000670974 3.10274 0 3.86938L0 16.0793C0.000670974 16.846 0.322997 17.581 0.896212 18.1231C1.46943 18.6652 2.24668 18.9701 3.05733 18.9707H21.9427C22.7533 18.9701 23.5306 18.6652 24.1038 18.1231C24.677 17.581 24.9993 16.846 25 16.0793V3.87417C25.0008 3.49444 24.9224 3.11829 24.7694 2.76721C24.6164 2.41613 24.3918 2.09699 24.1084 1.82804C23.8249 1.55908 23.4882 1.34559 23.1175 1.19974C22.7467 1.05389 22.3493 0.978551 21.9477 0.978027ZM23.6081 16.0793C23.6077 16.4957 23.4326 16.8948 23.1213 17.1892C22.81 17.4836 22.388 17.6492 21.9477 17.6496H3.05733C2.6171 17.6492 2.19502 17.4836 1.88373 17.1892C1.57244 16.8948 1.39736 16.4957 1.39691 16.0793V3.87417C1.39736 3.45784 1.57244 3.05868 1.88373 2.76429C2.19502 2.46989 2.6171 2.30432 3.05733 2.3039H21.9427C22.3829 2.30432 22.805 2.46989 23.1163 2.76429C23.4276 3.05868 23.6026 3.45784 23.6031 3.87417V16.0793H23.6081Z" fill="#756A63"/>
<path d="M15.7664 9.82317L21.8802 4.63778C22.0181 4.52031 22.101 4.35587 22.1106 4.18061C22.1203 4.00535 22.0559 3.83365 21.9317 3.70326C21.8075 3.57287 21.6336 3.49449 21.4483 3.48535C21.263 3.47622 21.0814 3.53707 20.9436 3.65454L12.5123 10.8112L10.8671 9.4222C10.862 9.41741 10.8569 9.41261 10.8569 9.40782C10.8213 9.37436 10.7832 9.3434 10.7429 9.31517L4.04972 3.65054C3.98221 3.58695 3.9017 3.53706 3.81309 3.50392C3.72449 3.47079 3.62967 3.4551 3.53443 3.45782C3.4392 3.46055 3.34555 3.48163 3.25923 3.51977C3.17291 3.55792 3.09573 3.61233 3.03241 3.67966C2.9691 3.747 2.92098 3.82585 2.89101 3.91138C2.86104 3.99692 2.84984 4.08734 2.85811 4.17711C2.86637 4.26688 2.89393 4.35411 2.93908 4.43346C2.98423 4.5128 3.04603 4.5826 3.1207 4.63858L9.30715 9.8679L3.14688 15.3225C3.01216 15.4427 2.93325 15.6085 2.92739 15.7836C2.92154 15.9587 2.98921 16.1289 3.11563 16.257C3.18168 16.3227 3.26103 16.3751 3.34896 16.4112C3.43688 16.4473 3.53159 16.4663 3.62744 16.467C3.80367 16.4672 3.97346 16.4044 4.10293 16.2913L10.3527 10.7585L12.0495 12.1922C12.1778 12.2996 12.3435 12.3585 12.5149 12.3576C12.6863 12.3567 12.8514 12.2961 12.9785 12.1874L14.7217 10.7098L20.9394 16.2961C21.074 16.4165 21.2536 16.4815 21.4388 16.4768C21.6241 16.4722 21.7998 16.3983 21.9275 16.2714C22.0546 16.1439 22.1231 15.9741 22.1182 15.799C22.1133 15.6239 22.0353 15.4577 21.9013 15.3368L15.7664 9.82317Z" fill="#756A63"/>
</svg>
