<svg width="45" height="45" viewBox="0 0 45 45" fill="none" xmlns="http://www.w3.org/2000/svg">
<path d="M8.21673 0C3.66503 0 0 3.66182 0 8.20955V36.7512C0 41.2989 3.66503 44.9607 8.21673 44.9607H23.6996V27.3839H19.0477V21.0557H23.6996V15.6491C23.6996 11.4015 26.4481 7.50142 32.7797 7.50142C35.3433 7.50142 37.2389 7.74731 37.2389 7.74731L37.0899 13.6568C37.0899 13.6568 35.1565 13.6386 33.0469 13.6386C30.7636 13.6386 30.3975 14.6897 30.3975 16.4346V21.0557H37.2713L36.9717 27.3839H30.3975V44.9608H36.7833C41.335 44.9608 45 41.2989 45 36.7512V8.20959C45 3.66187 41.335 4.49607e-05 36.7833 4.49607e-05H8.21669L8.21673 0Z" fill="white"/>
</svg>
