<svg width="45" height="45" viewBox="0 0 45 45" fill="none" xmlns="http://www.w3.org/2000/svg">
<path d="M22.5 16.92C21.3964 16.92 20.3175 17.2473 19.3999 17.8604C18.4823 18.4735 17.7671 19.345 17.3447 20.3646C16.9224 21.3842 16.8119 22.5062 17.0272 23.5886C17.2425 24.671 17.774 25.6653 18.5543 26.4457C19.3347 27.226 20.329 27.7575 21.4114 27.9728C22.4938 28.1881 23.6158 28.0776 24.6354 27.6552C25.655 27.2329 26.5265 26.5177 27.1396 25.6001C27.7527 24.6825 28.08 23.6036 28.08 22.5C28.08 21.7672 27.9357 21.0416 27.6552 20.3646C27.3748 19.6876 26.9638 19.0725 26.4457 18.5543C25.9275 18.0362 25.3124 17.6252 24.6354 17.3447C23.9584 17.0643 23.2328 16.92 22.5 16.92ZM44.8425 11.4075C44.8307 9.66996 44.5107 7.94829 43.8975 6.3225C43.4459 5.13283 42.7471 4.05246 41.8473 3.15267C40.9475 2.25287 39.8672 1.55411 38.6775 1.1025C37.0517 0.489293 35.33 0.169337 33.5925 0.1575C30.69 -1.3411e-07 29.835 0 22.5 0C15.165 0 14.31 -1.3411e-07 11.4075 0.1575C9.66996 0.169337 7.94829 0.489293 6.3225 1.1025C5.13283 1.55411 4.05246 2.25287 3.15267 3.15267C2.25287 4.05246 1.55411 5.13283 1.1025 6.3225C0.489293 7.94829 0.169337 9.66996 0.1575 11.4075C-1.3411e-07 14.31 0 15.165 0 22.5C0 29.835 -1.3411e-07 30.69 0.1575 33.5925C0.181719 35.3362 0.501242 37.0631 1.1025 38.7C1.55211 39.8842 2.25029 40.9583 3.15 41.85C4.04594 42.7552 5.12863 43.4539 6.3225 43.8975C7.94829 44.5107 9.66996 44.8307 11.4075 44.8425C14.31 45 15.165 45 22.5 45C29.835 45 30.69 45 33.5925 44.8425C35.33 44.8307 37.0517 44.5107 38.6775 43.8975C39.8714 43.4539 40.9541 42.7552 41.85 41.85C42.7497 40.9583 43.4479 39.8842 43.8975 38.7C44.5101 37.0662 44.83 35.3373 44.8425 33.5925C45 30.69 45 29.835 45 22.5C45 15.165 45 14.31 44.8425 11.4075ZM39.1275 29.4075C39.0553 30.796 38.759 32.1636 38.25 33.4575C37.8132 34.5368 37.1638 35.5172 36.3405 36.3405C35.5172 37.1638 34.5368 37.8132 33.4575 38.25C32.1514 38.7306 30.7761 38.9965 29.385 39.0375H15.615C14.2239 38.9965 12.8486 38.7306 11.5425 38.25C10.4267 37.8354 9.41912 37.1739 8.595 36.315C7.77975 35.5078 7.15015 34.5327 6.75 33.4575C6.2675 32.1528 6.00886 30.7759 5.985 29.385V22.5V15.615C6.00886 14.2241 6.2675 12.8472 6.75 11.5425C7.16463 10.4267 7.82612 9.41912 8.685 8.595C9.49575 7.78415 10.4698 7.15521 11.5425 6.75C12.8486 6.26941 14.2239 6.00347 15.615 5.9625H29.385C30.7761 6.00347 32.1514 6.26941 33.4575 6.75C34.5733 7.16463 35.5809 7.82612 36.405 8.685C37.2202 9.49218 37.8498 10.4673 38.25 11.5425C38.7306 12.8486 38.9965 14.2239 39.0375 15.615V22.5C39.0375 27.135 39.195 27.6075 39.1275 29.385V29.4075ZM35.5275 12.6675C35.2596 11.9407 34.8372 11.2807 34.2895 10.733C33.7418 10.1853 33.0818 9.76289 32.355 9.495C31.3571 9.14909 30.306 8.98153 29.25 9H15.75C14.6886 9.01037 13.6374 9.20843 12.645 9.585C11.9293 9.84073 11.2763 10.2459 10.7293 10.7735C10.1823 11.301 9.75389 11.939 9.4725 12.645C9.14575 13.6471 8.98611 14.6961 9 15.75V29.25C9.02231 30.3102 9.21998 31.3594 9.585 32.355C9.85289 33.0818 10.2753 33.7418 10.823 34.2895C11.3707 34.8372 12.0307 35.2596 12.7575 35.5275C13.7175 35.8806 14.7277 36.078 15.75 36.1125H29.25C30.3114 36.1021 31.3626 35.9041 32.355 35.5275C33.0818 35.2596 33.7418 34.8372 34.2895 34.2895C34.8372 33.7418 35.2596 33.0818 35.5275 32.355C35.9041 31.3626 36.1021 30.3114 36.1125 29.25V22.5V15.75C36.1131 14.6875 35.9147 13.6344 35.5275 12.645V12.6675ZM22.5 31.095C21.3723 31.095 20.2558 30.8725 19.2142 30.4403C18.1727 30.0081 17.2267 29.3746 16.4304 28.5762C15.634 27.7778 15.0031 26.8301 14.5736 25.7875C14.1441 24.7448 13.9245 23.6276 13.9275 22.5C13.9275 20.7991 14.4322 19.1365 15.3776 17.7225C16.323 16.3086 17.6667 15.207 19.2386 14.5571C20.8104 13.9073 22.5397 13.7384 24.2076 14.0718C25.8755 14.4053 27.4069 15.2261 28.608 16.4304C29.8092 17.6347 30.626 19.1683 30.9551 20.837C31.2842 22.5058 31.1108 24.2346 30.4568 25.8048C29.8028 27.3749 28.6976 28.7157 27.2812 29.6574C25.8648 30.5991 24.2009 31.0995 22.5 31.095ZM31.5 15.5925C31.0026 15.5399 30.5423 15.305 30.2078 14.9332C29.8733 14.5614 29.6882 14.0789 29.6882 13.5787C29.6882 13.0786 29.8733 12.5961 30.2078 12.2243C30.5423 11.8525 31.0026 11.6176 31.5 11.565C31.9974 11.6176 32.4577 11.8525 32.7922 12.2243C33.1267 12.5961 33.3118 13.0786 33.3118 13.5787C33.3118 14.0789 33.1267 14.5614 32.7922 14.9332C32.4577 15.305 31.9974 15.5399 31.5 15.5925Z" fill="white"/>
</svg>
