<svg width="83" height="83" viewBox="0 0 83 83" fill="none" xmlns="http://www.w3.org/2000/svg">
<path d="M62.5313 41.3512L57.7737 16.0336C57.755 15.9281 57.7156 15.8274 57.6577 15.7372C57.5998 15.6471 57.5247 15.5693 57.4366 15.5083C57.3484 15.4474 57.2491 15.4046 57.1443 15.3823C57.0396 15.36 56.9314 15.3586 56.8261 15.3784C56.7208 15.3982 56.6205 15.4386 56.5309 15.4974C56.4414 15.5561 56.3643 15.6321 56.3043 15.7208C56.2443 15.8095 56.2024 15.9093 56.1812 16.0143C56.1599 16.1193 56.1597 16.2274 56.1805 16.3325L60.7565 40.6898H36.8778C36.6628 40.6898 36.4567 40.7752 36.3047 40.9272C36.1527 41.0792 36.0673 41.2853 36.0673 41.5003C36.0673 41.7153 36.1527 41.9215 36.3047 42.0735C36.4567 42.2255 36.6628 42.3109 36.8778 42.3109H38.7421V65.0062C38.7421 65.2211 38.8275 65.4273 38.9795 65.5793C39.1315 65.7313 39.3376 65.8167 39.5526 65.8167C39.7676 65.8167 39.9737 65.7313 40.1258 65.5793C40.2778 65.4273 40.3632 65.2211 40.3632 65.0062V42.3109H52.1433V51.767C52.1433 51.982 52.2287 52.1882 52.3807 52.3402C52.5327 52.4922 52.7389 52.5776 52.9539 52.5776C53.1688 52.5776 53.375 52.4922 53.527 52.3402C53.679 52.1882 53.7644 51.982 53.7644 51.767V42.3109H61.735C61.854 42.3108 61.9716 42.2845 62.0793 42.2339C62.1871 42.1832 62.2823 42.1095 62.3584 42.0179C62.4344 41.9263 62.4893 41.819 62.5192 41.7038C62.549 41.5886 62.5532 41.4682 62.5313 41.3512Z" fill="#A2876C"/>
<path d="M34.2858 41.5004C34.2858 41.2854 34.2004 41.0792 34.0484 40.9272C33.8964 40.7752 33.6902 40.6898 33.4752 40.6898H22.241L27.5414 12.4705C27.6304 12.1057 27.8435 11.7832 28.1443 11.5585C28.445 11.3337 28.8146 11.2205 29.1897 11.2384H53.8109C54.1859 11.2205 54.5555 11.3337 54.8563 11.5585C55.157 11.7832 55.3702 12.1057 55.4592 12.4705L55.6706 13.5949C55.6893 13.7003 55.7287 13.8011 55.7866 13.8912C55.8444 13.9814 55.9196 14.0592 56.0077 14.1201C56.0958 14.181 56.1952 14.2239 56.2999 14.2462C56.4047 14.2685 56.5129 14.2698 56.6182 14.25C56.7235 14.2303 56.8238 14.1899 56.9134 14.1311C57.0029 14.0723 57.08 13.9964 57.14 13.9077C57.2 13.8189 57.2419 13.7192 57.2631 13.6142C57.2844 13.5092 57.2846 13.401 57.2638 13.2959L57.0524 12.1709C56.8935 11.4346 56.4828 10.7768 55.8909 10.3109C55.2991 9.84502 54.5632 9.60019 53.8102 9.61865H29.1884C28.4353 9.60022 27.6994 9.84514 27.1075 10.3112C26.5157 10.7772 26.105 11.4351 25.9462 12.1715L20.4656 41.3512C20.4437 41.4683 20.4479 41.5888 20.4778 41.704C20.5077 41.8193 20.5627 41.9266 20.6388 42.0182C20.7148 42.1098 20.8102 42.1835 20.918 42.2341C21.0258 42.2847 21.1435 42.311 21.2626 42.3109H33.4752C33.5817 42.3109 33.6871 42.29 33.7854 42.2492C33.8837 42.2085 33.9731 42.1488 34.0484 42.0735C34.1236 41.9982 34.1833 41.9089 34.2241 41.8106C34.2648 41.7122 34.2858 41.6068 34.2858 41.5004Z" fill="#A2876C"/>
<path d="M50.0643 67.4381H44.255V48.7145C44.255 48.4995 44.1696 48.2933 44.0176 48.1413C43.8656 47.9893 43.6594 47.9039 43.4444 47.9039C43.2294 47.9039 43.0233 47.9893 42.8713 48.1413C42.7193 48.2933 42.6339 48.4995 42.6339 48.7145V67.4381H32.9345C31.5736 67.4398 30.2689 67.9813 29.3066 68.9437C28.3443 69.9061 27.8031 71.2108 27.8015 72.5718C27.8015 72.7868 27.8869 72.9929 28.0389 73.1449C28.1909 73.2969 28.3971 73.3823 28.6121 73.3823C28.827 73.3823 29.0332 73.2969 29.1852 73.1449C29.3372 72.9929 29.4226 72.7868 29.4226 72.5718C29.4236 71.6406 29.794 70.7479 30.4523 70.0894C31.1107 69.4309 32.0034 69.0604 32.9345 69.0592H50.0643C50.8547 69.0602 51.6218 69.3273 52.2418 69.8175C52.8619 70.3077 53.2988 70.9924 53.4822 71.7612H31.6649C31.4499 71.7612 31.2438 71.8466 31.0918 71.9986C30.9398 72.1506 30.8544 72.3568 30.8544 72.5718C30.8544 72.7868 30.9398 72.9929 31.0918 73.1449C31.2438 73.2969 31.4499 73.3823 31.6649 73.3823H54.3868C54.6018 73.3823 54.8079 73.2969 54.9599 73.1449C55.1119 72.9929 55.1973 72.7868 55.1973 72.5718C55.1958 71.2108 54.6545 69.9061 53.6922 68.9437C52.73 67.9813 51.4253 67.4398 50.0643 67.4381Z" fill="#A2876C"/>
<path d="M43.4435 46.1208C43.6584 46.1208 43.8646 46.0354 44.0166 45.8834C44.1686 45.7314 44.254 45.5253 44.254 45.3103V44.7429C44.254 44.5279 44.1686 44.3218 44.0166 44.1698C43.8646 44.0178 43.6584 43.9324 43.4435 43.9324C43.2285 43.9324 43.0223 44.0178 42.8703 44.1698C42.7183 44.3218 42.6329 44.5279 42.6329 44.7429V45.3103C42.6329 45.5253 42.7183 45.7314 42.8703 45.8834C43.0223 46.0354 43.2285 46.1208 43.4435 46.1208Z" fill="#A2876C"/>
</svg>
