<svg width="45" height="45" viewBox="0 0 45 45" fill="none" xmlns="http://www.w3.org/2000/svg">
<path d="M8.81832 0C3.96893 0 0 3.96537 0 8.81061V36.1515C0 40.9966 3.96884 44.9607 8.81832 44.9607H36.1831C41.0326 44.9607 45 40.9967 45 36.1515V8.81061C45 3.96547 41.0326 0 36.1831 0H8.81832ZM11.0363 7.41941C13.3614 7.41941 14.7936 8.94452 14.8379 10.9492C14.8379 12.9097 13.3613 14.4777 10.9913 14.4777H10.9477C8.66674 14.4777 7.19248 12.9098 7.19248 10.9492C7.19248 8.94456 8.7114 7.41941 11.0363 7.41941ZM31.0736 16.7893C35.5454 16.7893 38.8976 19.7095 38.8976 25.9849V37.6999H32.1017V26.7703C32.1017 24.0238 31.1182 22.15 28.6588 22.15C26.7813 22.15 25.6622 23.413 25.1709 24.633C24.9914 25.0695 24.9472 25.6791 24.9472 26.2897V37.6999H18.1514C18.1514 37.6999 18.2406 19.1855 18.1514 17.2684H24.9486V20.1617C25.8517 18.7696 27.4671 16.7893 31.0736 16.7893ZM7.59333 17.2699H14.3892V37.7H7.59333V17.2699Z" fill="white"/>
</svg>
