<svg width="30" height="30" viewBox="0 0 30 30" fill="none" xmlns="http://www.w3.org/2000/svg">
<path d="M15 5.59985C14.0556 5.59985 13.1324 5.8799 12.3471 6.40459C11.5619 6.92927 10.9499 7.67502 10.5885 8.54754C10.227 9.42006 10.1325 10.3802 10.3167 11.3064C10.501 12.2327 10.9557 13.0835 11.6235 13.7513C12.2913 14.4191 13.1422 14.8739 14.0684 15.0581C14.9947 15.2424 15.9548 15.1478 16.8273 14.7864C17.6998 14.425 18.4456 13.8129 18.9702 13.0277C19.4949 12.2425 19.775 11.3193 19.775 10.3749C19.775 9.10845 19.2719 7.89391 18.3764 6.99842C17.4809 6.10293 16.2664 5.59985 15 5.59985ZM15 13.4832C14.3852 13.4832 13.7842 13.3009 13.2731 12.9593C12.7619 12.6178 12.3635 12.1323 12.1283 11.5644C11.893 10.9964 11.8314 10.3714 11.9514 9.76845C12.0713 9.16549 12.3673 8.61164 12.8021 8.17693C13.2368 7.74222 13.7906 7.44618 14.3936 7.32625C14.9965 7.20631 15.6215 7.26787 16.1895 7.50313C16.7575 7.73839 17.2429 8.13679 17.5845 8.64796C17.926 9.15912 18.1083 9.76008 18.1083 10.3749C18.1061 11.1978 17.7776 11.9863 17.195 12.5674C16.6123 13.1485 15.8229 13.4749 15 13.4749V13.4832Z" fill="#756A63"/>
<path d="M15 1.66675C12.4043 1.66892 9.915 2.69815 8.07569 4.52966C6.23637 6.36117 5.19656 8.84611 5.18335 11.4417C5.18335 15.3334 7.36668 18.5917 8.96668 20.9667L9.25835 21.4001C10.8502 23.7073 12.558 25.9323 14.375 28.0667L15.0083 28.8084L15.6417 28.0667C17.4585 25.9322 19.1662 23.7071 20.7583 21.4001L21.05 20.9584C22.6417 18.5834 24.825 15.3334 24.825 11.4417C24.8118 8.84467 23.7708 6.35847 21.9297 4.52672C20.0886 2.69498 17.5971 1.66671 15 1.66675ZM19.6583 20.0001L19.3583 20.4417C17.925 22.5917 16.025 25.0001 15 26.1917C14.0167 25.0001 12.075 22.5917 10.6417 20.4417L10.35 20.0001C8.87502 17.8001 6.85002 14.7917 6.85002 11.4084C6.85002 10.3381 7.06082 9.27835 7.4704 8.28955C7.87997 7.30074 8.4803 6.40229 9.2371 5.64549C9.99389 4.8887 10.8923 4.28837 11.8811 3.8788C12.8699 3.46922 13.9297 3.25841 15 3.25841C16.0703 3.25841 17.1301 3.46922 18.1189 3.8788C19.1077 4.28837 20.0061 4.8887 20.7629 5.64549C21.5197 6.40229 22.1201 7.30074 22.5296 8.28955C22.9392 9.27835 23.15 10.3381 23.15 11.4084C23.15 14.8251 21.1333 17.8334 19.6583 20.0001Z" fill="#756A63"/>
</svg>
