<svg width="26" height="25" viewBox="0 0 26 25" fill="none" xmlns="http://www.w3.org/2000/svg">
<path d="M19.7821 15.4797C19.5564 15.2284 19.2813 15.0262 18.9738 14.8856C18.6664 14.745 18.3333 14.669 17.9951 14.6625C17.6546 14.6704 17.3192 14.7464 17.0086 14.8859C16.6981 15.0254 16.4187 15.2256 16.1871 15.4747L14.5166 17.1361C14.3791 17.062 14.2415 16.9938 14.1091 16.9248C13.9184 16.8297 13.7387 16.7405 13.586 16.6454C11.9296 15.5717 10.46 14.2355 9.23507 12.6897C8.66721 12.0039 8.18738 11.2502 7.8067 10.4458C8.24035 10.0503 8.64195 9.63871 9.03342 9.24314C9.18107 9.09585 9.32956 8.94267 9.47721 8.79454C9.73863 8.56741 9.9482 8.28702 10.0918 7.97226C10.2354 7.6575 10.3097 7.31569 10.3097 6.96986C10.3097 6.62403 10.2354 6.28222 10.0918 5.96746C9.9482 5.6527 9.73863 5.37231 9.47721 5.14518L8.03449 3.7026C7.87082 3.53932 7.70123 3.37015 7.54262 3.19761C7.22539 2.87106 6.89213 2.5344 6.54622 2.22047C6.31725 1.98042 6.04266 1.78826 5.73847 1.65517C5.43429 1.52209 5.10658 1.45075 4.77447 1.44531C4.09654 1.45889 3.451 1.73721 2.97656 2.22047L2.96559 2.23141L1.1719 4.0401C0.505715 4.69198 0.0982012 5.56212 0.0244839 6.49012C-0.0373514 7.82804 0.192945 9.16339 0.699437 10.4038C1.64564 12.8653 3.0143 15.1438 4.7441 17.1369C7.01144 19.8585 9.836 22.065 13.0283 23.6083C14.4791 24.3542 16.0586 24.8189 17.683 24.9777C17.7943 24.9827 17.9099 24.9886 18.0162 24.9886C18.5891 25.0023 19.1582 24.8926 19.6847 24.6668C20.2112 24.4411 20.6827 24.1048 21.067 23.6807C21.0721 23.6697 21.083 23.6647 21.0881 23.6546C21.3795 23.3196 21.6893 23.0009 22.0162 22.7002C22.2431 22.4839 22.476 22.2575 22.7038 22.0201C23.1991 21.5397 23.4857 20.8845 23.5019 20.1954C23.495 19.8549 23.4193 19.5192 23.2794 19.2084C23.1395 18.8976 22.9383 18.6182 22.6877 18.3868L19.7821 15.4797ZM21.6745 21.0346C21.6694 21.0346 21.6694 21.0396 21.6745 21.0346C21.4686 21.2559 21.2526 21.4554 21.0299 21.6776C20.6711 22.0114 20.3304 22.364 20.009 22.7338C19.7596 23.0107 19.4524 23.2296 19.1089 23.375C18.7654 23.5205 18.3942 23.5889 18.0213 23.5755C17.942 23.5755 17.8576 23.5755 17.7783 23.5704C16.3379 23.4226 14.9386 23.0039 13.6543 22.3366C10.648 20.8812 7.9877 18.8027 5.85102 16.2397C4.22499 14.3675 2.93697 12.228 2.04428 9.91645C1.6011 8.87415 1.39924 7.74557 1.4537 6.61469C1.49568 6.02084 1.75549 5.46324 2.18349 5.04839L3.98646 3.2498C4.19653 3.02736 4.48385 2.89339 4.78965 2.87526C5.08559 2.89269 5.36282 3.02538 5.56163 3.24475L5.57766 3.26074C5.89995 3.5612 6.20706 3.87261 6.52935 4.20506C6.69302 4.37339 6.86261 4.54172 7.03556 4.71678L8.47321 6.15347C8.60269 6.24712 8.70809 6.37005 8.78077 6.51217C8.85345 6.6543 8.89134 6.81157 8.89134 6.97112C8.89134 7.13067 8.85345 7.28795 8.78077 7.43007C8.70809 7.5722 8.60269 7.69512 8.47321 7.78878C8.31966 7.94196 8.17202 8.09429 8.01846 8.24242C7.57468 8.69607 7.15115 9.11773 6.69134 9.5293C6.68037 9.54024 6.67024 9.54529 6.66518 9.55539C6.50241 9.70306 6.38881 9.89687 6.33965 10.1108C6.29049 10.3247 6.3081 10.5485 6.39014 10.7522L6.40617 10.7993C6.84107 11.8009 7.41599 12.736 8.1138 13.5768L8.11886 13.5818C9.43884 15.2497 11.0251 16.6893 12.814 17.8431C13.0246 17.9719 13.2417 18.0899 13.4645 18.1965C13.6552 18.2916 13.8349 18.3809 13.9876 18.476C14.0087 18.4869 14.0298 18.5021 14.0509 18.513C14.2122 18.598 14.3915 18.6433 14.5739 18.6451C14.7254 18.6413 14.8746 18.6072 15.0126 18.5447C15.1505 18.4822 15.2745 18.3928 15.3771 18.2815L17.1852 16.4779C17.3902 16.2484 17.6761 16.1067 17.9833 16.0823C18.1294 16.0916 18.2722 16.1304 18.4027 16.1966C18.5333 16.2627 18.6489 16.3547 18.7426 16.467L18.7536 16.4779L21.6669 19.3841C21.7934 19.481 21.8961 19.6055 21.967 19.748C22.0379 19.8906 22.0751 20.0475 22.0759 20.2066C22.0766 20.3658 22.0408 20.523 21.9712 20.6662C21.9016 20.8094 21.8001 20.9348 21.6745 21.0329V21.0346Z" fill="#756A63"/>
<path d="M13.5219 5.94186C14.9039 6.18114 16.1779 6.8406 17.1697 7.82999C18.1615 8.81938 18.8226 10.0903 19.0624 11.4689C19.0906 11.6343 19.1767 11.7843 19.3054 11.8922C19.4342 12.0001 19.5971 12.0589 19.7652 12.0581C19.8059 12.0571 19.8465 12.0534 19.8867 12.0472C19.9799 12.0322 20.0691 11.9989 20.1493 11.9493C20.2294 11.8998 20.299 11.8348 20.3539 11.7583C20.4088 11.6818 20.448 11.5952 20.4691 11.5035C20.4903 11.4118 20.4931 11.3168 20.4773 11.224C20.1878 9.55562 19.3882 8.01734 18.188 6.82006C16.9878 5.62277 15.4458 4.82508 13.7733 4.53631C13.5869 4.50499 13.3957 4.54834 13.2412 4.65693C13.0867 4.76552 12.9814 4.93058 12.9482 5.11621C12.9307 5.20807 12.9317 5.30249 12.9512 5.39396C12.9707 5.48543 13.0082 5.57212 13.0616 5.64898C13.115 5.72583 13.1832 5.7913 13.2622 5.84159C13.3413 5.89187 13.4295 5.92596 13.5219 5.94186Z" fill="#756A63"/>
<path d="M25.0047 11.0263C24.5286 8.27862 23.2121 5.74512 21.2358 3.77318C19.2595 1.80125 16.7201 0.487433 13.9658 0.0118901C13.8726 -0.0053237 13.7769 -0.00383327 13.6843 0.0162743C13.5917 0.0363818 13.5041 0.0747029 13.4265 0.128997C13.3489 0.183291 13.283 0.252468 13.2325 0.332484C13.1821 0.4125 13.1481 0.501749 13.1326 0.595011C13.1171 0.688274 13.1205 0.78368 13.1424 0.875649C13.1643 0.967619 13.2044 1.05431 13.2603 1.13065C13.3162 1.20698 13.3867 1.27144 13.4679 1.32024C13.5491 1.36905 13.6392 1.40122 13.7329 1.41489C16.1945 1.83882 18.4642 3.01232 20.2305 4.77434C21.9969 6.53636 23.1732 8.80052 23.5982 11.2561C23.6264 11.4214 23.7125 11.5714 23.8412 11.6793C23.9699 11.7872 24.1329 11.846 24.301 11.8452C24.3417 11.8442 24.3823 11.8405 24.4225 11.8343C24.5142 11.82 24.6021 11.7876 24.6812 11.7391C24.7603 11.6907 24.8289 11.627 24.883 11.5518C24.9372 11.4766 24.9758 11.3914 24.9967 11.3012C25.0176 11.211 25.0203 11.1176 25.0047 11.0263Z" fill="#756A63"/>
</svg>
