<svg width="83" height="83" viewBox="0 0 83 83" fill="none" xmlns="http://www.w3.org/2000/svg">
<path d="M28.589 45.1202C28.804 45.1202 29.0101 45.0348 29.1621 44.8828C29.3141 44.7308 29.3995 44.5247 29.3995 44.3097V43.0433C29.4024 42.0743 29.7707 41.1422 30.4309 40.4329C31.0911 39.7237 31.9945 39.2897 32.9608 39.2175C34.3352 39.1148 35.6204 38.4975 36.5597 37.4888C37.4989 36.48 38.0231 35.1541 38.0276 33.7758V30.1057C38.0276 29.9891 38.074 29.8772 38.1564 29.7948C38.2389 29.7123 38.3507 29.666 38.4673 29.666C38.6823 29.666 38.8884 29.5806 39.0404 29.4286C39.1924 29.2766 39.2778 29.0704 39.2778 28.8555C39.2778 28.6405 39.1924 28.4343 39.0404 28.2823C38.8884 28.1303 38.6823 28.0449 38.4673 28.0449C37.9209 28.0454 37.397 28.2627 37.0107 28.6491C36.6243 29.0354 36.4071 29.5593 36.4065 30.1057V33.7778C36.4038 34.7467 36.0356 35.679 35.3754 36.3883C34.7152 37.0975 33.8116 37.5315 32.8453 37.6035C31.4709 37.7064 30.1858 38.3237 29.2466 39.3325C28.3074 40.3412 27.7831 41.667 27.7784 43.0452V44.3116C27.779 44.5263 27.8646 44.7319 28.0165 44.8835C28.1685 45.0351 28.3744 45.1202 28.589 45.1202Z" fill="#A1876C"/>
<path d="M50.1546 37.6016C49.1883 37.5296 48.2848 37.0956 47.6246 36.3863C46.9643 35.6771 46.5961 34.7448 46.5934 33.7758V30.1057C46.5929 29.5593 46.3756 29.0354 45.9892 28.6491C45.6029 28.2627 45.079 28.0454 44.5326 28.0449H42.8234L43.1839 23.6154L46.7574 21.1806L52.6705 23.9001C52.8655 23.9876 53.0871 23.9946 53.2871 23.9196C53.4872 23.8446 53.6495 23.6936 53.7389 23.4995C53.8282 23.3054 53.8372 23.0839 53.7641 22.8831C53.6909 22.6824 53.5414 22.5186 53.3482 22.4275L48.3215 20.1152L51.5215 17.9351C51.6095 17.8752 51.6848 17.7985 51.7431 17.7095C51.8014 17.6204 51.8416 17.5207 51.8614 17.4162C51.8813 17.3116 51.8803 17.2041 51.8585 17.0999C51.8368 16.9957 51.7948 16.8968 51.7348 16.8088C51.6749 16.7208 51.5982 16.6455 51.5092 16.5872C51.4201 16.5289 51.3204 16.4887 51.2159 16.4689C51.1113 16.449 51.0038 16.45 50.8996 16.4718C50.7954 16.4935 50.6965 16.5355 50.6085 16.5955L43.3538 21.5379L44.2538 10.495C44.271 10.2807 44.2024 10.0683 44.063 9.90466C43.9237 9.74098 43.725 9.63937 43.5107 9.62217C43.2964 9.60497 43.0841 9.6736 42.9204 9.81296C42.7567 9.95232 42.6551 10.151 42.6379 10.3653L42.2488 15.1689L39.5838 14.4238L38.5618 10.2388C38.5108 10.03 38.3788 9.84995 38.195 9.73837C38.0112 9.6268 37.7906 9.59281 37.5817 9.64389C37.3729 9.69497 37.1928 9.82692 37.0813 10.0107C36.9697 10.1945 36.9357 10.4151 36.9868 10.624L37.7928 13.9233L35.0713 13.1633C34.885 13.1117 34.6864 13.128 34.511 13.2093L25.4692 17.4157L22.8249 16.054C22.7303 16.0053 22.6269 15.9756 22.5208 15.9668C22.4147 15.958 22.3079 15.9702 22.2065 16.0026C22.1051 16.0351 22.0111 16.0872 21.9299 16.156C21.8486 16.2248 21.7817 16.3089 21.7329 16.4035C21.6842 16.4982 21.6546 16.6015 21.6457 16.7076C21.6369 16.8137 21.6491 16.9205 21.6815 17.0219C21.714 17.1233 21.7661 17.2173 21.8349 17.2986C21.9037 17.3798 21.9878 17.4467 22.0824 17.4955L25.0795 19.0394C25.1895 19.096 25.3109 19.1267 25.4346 19.1291C25.5582 19.1314 25.6808 19.1054 25.7928 19.053L29.3417 17.4015V20.2546C29.3417 20.4696 29.4271 20.6757 29.5791 20.8277C29.7311 20.9797 29.9373 21.0651 30.1522 21.0651C30.3672 21.0651 30.5734 20.9797 30.7254 20.8277C30.8774 20.6757 30.9628 20.4696 30.9628 20.2546V16.6467L34.9234 14.8025L42.1114 16.8127L41.4908 24.426L36.2553 20.5321C36.0828 20.4038 35.8665 20.3493 35.6538 20.3806C35.4411 20.4118 35.2495 20.5263 35.1212 20.6988C34.9929 20.8713 34.9384 21.0877 34.9697 21.3004C35.0009 21.513 35.1154 21.7046 35.2879 21.8329L41.3358 26.3311L39.0663 54.1996C38.4146 54.2788 37.7753 54.3663 37.1586 54.4642C34.598 54.9164 31.9875 55.0152 29.4001 54.758V50.9562C29.4001 50.7412 29.3147 50.535 29.1627 50.383C29.0106 50.231 28.8045 50.1456 28.5895 50.1456C28.3745 50.1456 28.1684 50.231 28.0164 50.383C27.8644 50.535 27.779 50.7412 27.779 50.9562V71.4941C27.779 72.1536 27.779 73.3817 41.5005 73.3817C55.2221 73.3817 55.2221 72.1536 55.2221 71.4941V43.0433C55.2175 41.6649 54.6931 40.339 53.7538 39.3303C52.8144 38.3216 51.5291 37.7043 50.1546 37.6016ZM41.4999 71.7606C35.0603 71.7606 30.6308 71.3716 29.3994 71.0435V56.3758C30.2562 56.4747 31.1178 56.5258 31.9802 56.5288C33.8002 56.5168 35.6164 56.3618 37.4122 56.0652C39.8113 55.695 42.2308 55.4719 44.6571 55.3973C44.7635 55.3939 44.8682 55.3695 44.9652 55.3256C45.0622 55.2817 45.1496 55.2191 45.2224 55.1415C45.2952 55.0638 45.352 54.9725 45.3895 54.8729C45.427 54.7733 45.4446 54.6672 45.4411 54.5608C45.4389 54.454 45.4153 54.3487 45.3718 54.2512C45.3282 54.1536 45.2656 54.0657 45.1876 53.9928C45.1096 53.9198 45.0178 53.8631 44.9175 53.8262C44.8173 53.7892 44.7107 53.7727 44.604 53.7775C43.2922 53.8203 41.981 53.9072 40.7062 54.0233L42.6904 29.6667H44.532C44.6486 29.6667 44.7604 29.713 44.8429 29.7954C44.9253 29.8779 44.9716 29.9897 44.9716 30.1063V33.7784C44.9761 35.1567 45.5003 36.4826 46.4396 37.4913C47.3789 38.5001 48.664 39.1174 50.0385 39.2201C51.0048 39.2923 51.9082 39.7263 52.5684 40.4355C53.2286 41.1448 53.5969 42.077 53.5997 43.0459V54.1595C52.1045 53.9649 50.471 53.83 48.7151 53.7736C48.6083 53.7686 48.5016 53.785 48.4013 53.822C48.3011 53.8589 48.2092 53.9156 48.1313 53.9888C48.0533 54.0619 47.9908 54.1499 47.9475 54.2476C47.9043 54.3453 47.881 54.4507 47.8792 54.5576C47.8758 54.664 47.8933 54.7701 47.9309 54.8697C47.9685 54.9693 48.0253 55.0606 48.0982 55.1382C48.1711 55.2158 48.2586 55.2784 48.3556 55.3221C48.4527 55.3659 48.5574 55.3902 48.6638 55.3934C50.315 55.4412 51.9626 55.5754 53.5997 55.7955V71.0428C52.369 71.3703 47.9395 71.7606 41.4999 71.7606Z" fill="#A1876C"/>
<path d="M27.7784 48.1465C27.7784 48.3615 27.8638 48.5676 28.0158 48.7196C28.1679 48.8716 28.374 48.957 28.589 48.957C28.804 48.957 29.0101 48.8716 29.1621 48.7196C29.3141 48.5676 29.3995 48.3615 29.3995 48.1465V47.5519C29.3995 47.3369 29.3141 47.1307 29.1621 46.9787C29.0101 46.8267 28.804 46.7413 28.589 46.7413C28.374 46.7413 28.1679 46.8267 28.0158 46.9787C27.8638 47.1307 27.7784 47.3369 27.7784 47.5519V48.1465Z" fill="#A1876C"/>
<path d="M39.5806 57.8652C39.4744 57.8563 39.3674 57.8684 39.2659 57.9009C39.1644 57.9334 39.0703 57.9857 38.9891 58.0547C38.9079 58.1237 38.8411 58.2081 38.7926 58.303C38.7441 58.3979 38.7148 58.5014 38.7065 58.6077L38.0982 66.0757C38.0808 66.2901 38.1493 66.5026 38.2885 66.6665C38.4277 66.8304 38.6264 66.9323 38.8407 66.9498C38.8634 66.9498 38.8854 66.9498 38.9055 66.9498C39.109 66.9497 39.3049 66.8731 39.4545 66.7352C39.604 66.5973 39.6962 66.4082 39.7128 66.2054L40.3211 58.738C40.3381 58.5242 40.2698 58.3123 40.131 58.1488C39.9922 57.9852 39.7943 57.8832 39.5806 57.8652Z" fill="#A1876C"/>
<path d="M61.1002 14.9024C61.0136 14.8405 60.9156 14.7963 60.8119 14.7723C60.7082 14.7483 60.6007 14.7449 60.4957 14.7625C60.3907 14.78 60.2902 14.818 60.1998 14.8744C60.1095 14.9308 60.0312 15.0044 59.9694 15.0911L57.8548 18.0518L53.7761 17.0792C53.6726 17.0545 53.5652 17.0504 53.4601 17.0672C53.3549 17.0841 53.2542 17.1214 53.1635 17.1772C53.0728 17.2329 52.994 17.306 52.9316 17.3922C52.8691 17.4784 52.8243 17.5761 52.7996 17.6796C52.7749 17.7832 52.7708 17.8906 52.7876 17.9957C52.8044 18.1008 52.8418 18.2016 52.8976 18.2923C52.9533 18.383 53.0264 18.4618 53.1126 18.5242C53.1988 18.5866 53.2965 18.6315 53.4 18.6562L58.0091 19.7585C58.0707 19.7734 58.1338 19.7808 58.1972 19.7806C58.3262 19.7806 58.4533 19.7498 58.568 19.6908C58.6827 19.6319 58.7816 19.5464 58.8566 19.4414L61.2883 16.0372C61.3507 15.9504 61.3954 15.8522 61.4197 15.7481C61.4441 15.644 61.4476 15.5361 61.4302 15.4307C61.4127 15.3252 61.3745 15.2243 61.3179 15.1336C61.2613 15.0429 61.1873 14.9644 61.1002 14.9024Z" fill="#A1876C"/>
<path d="M20.75 14.9828L20.4751 14.8421C20.3802 14.7913 20.2762 14.7598 20.1691 14.7496C20.062 14.7394 19.9539 14.7506 19.8511 14.7826C19.7484 14.8146 19.6531 14.8668 19.5707 14.936C19.4883 15.0052 19.4205 15.0902 19.3713 15.1859C19.3221 15.2816 19.2925 15.3861 19.2841 15.4934C19.2757 15.6007 19.2888 15.7086 19.3225 15.8107C19.3563 15.9129 19.41 16.0073 19.4806 16.0885C19.5513 16.1697 19.6374 16.236 19.7339 16.2836L20.0088 16.4256C20.2002 16.5239 20.4227 16.5421 20.6275 16.4763C20.8323 16.4106 21.0025 16.2661 21.1008 16.0748C21.1991 15.8835 21.2173 15.6609 21.1516 15.4561C21.0858 15.2514 20.9413 15.0811 20.75 14.9828Z" fill="#A1876C"/>
</svg>
