<svg width="90" height="90" viewBox="0 0 90 90" fill="none" xmlns="http://www.w3.org/2000/svg">
<g clip-path="url(#clip0)">
<path d="M86.7391 7.00932L86.9159 69.638L50.6607 58.2025L86.7391 7.00932Z" fill="#DDCBC1"/>
<path d="M89.1138 0.23103C88.5656 -0.0818608 87.8913 -0.0765874 87.3481 0.244741L55.1355 19.2931C54.2998 19.7872 54.0229 20.8651 54.5171 21.7008C55.011 22.5363 56.0889 22.8131 56.9247 22.3192L80.0368 8.65236L36.9869 53.3207L15.5753 46.77L43.5184 30.2466C44.3541 29.7523 44.6309 28.6744 44.1368 27.8387C43.6429 27.0032 42.5648 26.726 41.7291 27.2203L10.3559 45.7721C9.75644 46.1266 9.42263 46.8015 9.50507 47.4932C9.58751 48.1849 10.0704 48.7625 10.7362 48.9662L36.307 56.7892L47.5881 77.3227C47.5999 77.344 47.612 77.3619 47.6245 77.3779C47.8128 77.6918 48.0949 77.9483 48.4468 78.0963C48.6671 78.189 48.8986 78.2341 49.1285 78.2341C49.579 78.2341 50.0225 78.0608 50.3574 77.7333L63.329 65.056L87.7285 72.5207C87.8972 72.5722 88.0704 72.5977 88.2426 72.5977C88.6146 72.5977 88.982 72.4796 89.2882 72.253C89.7363 71.9215 90.0006 71.3971 90.0006 70.8399V1.75787C90.0006 1.12664 89.6621 0.543745 89.1138 0.23103ZM47.6839 57.8725C47.4804 58.1666 47.3712 58.5157 47.3712 58.8734V69.6261L39.6679 55.6049L73.7556 20.236L47.6839 57.8725ZM50.8868 72.3005V61.2496L59.4983 63.8842L50.8868 72.3005ZM86.485 68.4639L51.9441 57.8966L86.485 8.03396V68.4639Z" fill="#141414"/>
<path d="M28.9033 61.0976C28.2167 60.4112 27.104 60.4112 26.4173 61.0976L10.0077 77.5071C9.32131 78.1935 9.32131 79.3066 10.0077 79.9932C10.3512 80.3363 10.801 80.5079 11.2509 80.5079C11.7007 80.5079 12.1505 80.3363 12.4938 79.993L28.9033 63.5835C29.5898 62.8972 29.5898 61.7842 28.9033 61.0976Z" fill="#DDCBC1"/>
<path d="M7.04393 82.9562C6.35733 82.2701 5.24463 82.2701 4.55803 82.9564L0.515063 86.9993C-0.171362 87.6858 -0.171362 88.7988 0.515063 89.4854C0.858364 89.8285 1.30819 90.0001 1.75801 90.0001C2.20784 90.0001 2.65766 89.8284 3.00096 89.4852L7.04393 85.4423C7.73036 84.7558 7.73036 83.6428 7.04393 82.9562Z" fill="#141414"/>
<path d="M25.0754 86.8957C24.7486 86.5687 24.2951 86.3806 23.8328 86.3806C23.3685 86.3806 22.9169 86.5687 22.59 86.8957C22.263 87.2226 22.075 87.6744 22.075 88.1384C22.075 88.6007 22.2629 89.0542 22.59 89.3812C22.9169 89.7082 23.3705 89.8962 23.8328 89.8962C24.2951 89.8962 24.7486 89.7082 25.0754 89.3812C25.4023 89.0542 25.5906 88.6007 25.5906 88.1384C25.5906 87.6744 25.4025 87.2226 25.0754 86.8957Z" fill="#DDCBC1"/>
<path d="M38.1541 73.8166C37.468 73.1302 36.3553 73.1302 35.6682 73.8166L26.9765 82.5081C26.2901 83.1945 26.2901 84.3076 26.9765 84.994C27.3198 85.3373 27.7696 85.5089 28.2194 85.5089C28.6693 85.5089 29.1191 85.3371 29.4624 84.994L38.1541 76.3025C38.8405 75.6161 38.8405 74.503 38.1541 73.8166Z" fill="#141414"/>
<path d="M68.1517 73.1495C67.4651 72.4632 66.3524 72.4632 65.6658 73.1495L56.9506 81.8647C56.2642 82.5511 56.2642 83.6641 56.9506 84.3507C57.2939 84.6939 57.7437 84.8656 58.1936 84.8656C58.6434 84.8656 59.0932 84.6939 59.4365 84.3507L68.1517 75.6355C68.8381 74.9491 68.8381 73.8361 68.1517 73.1495Z" fill="#DDCBC1"/>
<path d="M49.8343 23.9608C49.5074 23.6339 49.0539 23.4458 48.5916 23.4458C48.1292 23.4458 47.6757 23.6339 47.3488 23.9608C47.022 24.2878 46.8337 24.7413 46.8337 25.2054C46.8337 25.6677 47.0218 26.1194 47.3488 26.4464C47.6757 26.7751 48.1292 26.9614 48.5916 26.9614C49.0539 26.9614 49.5074 26.7751 49.8343 26.4464C50.1611 26.1194 50.3494 25.6677 50.3494 25.2054C50.3494 24.7413 50.1613 24.2878 49.8343 23.9608Z" fill="#141414"/>
</g>
<defs>
<clipPath id="clip0">
<rect width="90" height="90" fill="white" transform="translate(0.000488281)"/>
</clipPath>
</defs>
</svg>
