<svg width="83" height="83" viewBox="0 0 83 83" fill="none" xmlns="http://www.w3.org/2000/svg">
<path d="M11.6006 20.671L20.6709 11.6006L22.5922 13.5219L19.0381 17.0767C18.9574 17.1506 18.8924 17.2401 18.8472 17.3398C18.802 17.4396 18.7775 17.5474 18.7751 17.6569C18.7727 17.7663 18.7925 17.8752 18.8333 17.9768C18.8742 18.0784 18.9351 18.1706 19.0126 18.248C19.0901 18.3254 19.1824 18.3863 19.2841 18.427C19.3857 18.4677 19.4945 18.4874 19.604 18.4849C19.7135 18.4824 19.8213 18.4577 19.921 18.4124C20.0206 18.3671 20.1101 18.302 20.1839 18.2212L24.3112 14.0939C24.3865 14.0186 24.4462 13.9293 24.487 13.831C24.5277 13.7327 24.5487 13.6274 24.5487 13.521C24.5487 13.4145 24.5277 13.3092 24.487 13.2109C24.4462 13.1126 24.3865 13.0233 24.3112 12.9481L21.2441 9.8803C21.1689 9.80501 21.0795 9.74529 20.9811 9.70454C20.8828 9.66379 20.7774 9.64282 20.6709 9.64282C20.5644 9.64282 20.459 9.66379 20.3607 9.70454C20.2623 9.74529 20.173 9.80501 20.0977 9.8803L9.88091 20.0977C9.80562 20.173 9.7459 20.2624 9.70515 20.3607C9.66441 20.4591 9.64343 20.5645 9.64343 20.671C9.64343 20.7774 9.66441 20.8828 9.70515 20.9812C9.7459 21.0795 9.80562 21.1689 9.88091 21.2442L26.2215 37.5848C26.3736 37.7368 26.5798 37.8222 26.7947 37.8222C27.0097 37.8222 27.2159 37.7368 27.368 37.5848C27.52 37.4328 27.6054 37.2266 27.6054 37.0116C27.6054 36.7966 27.52 36.5904 27.368 36.4384L11.6006 20.671Z" fill="#A1876C"/>
<path d="M29.5902 38.6605C29.5155 38.5831 29.4261 38.5212 29.3273 38.4787C29.2284 38.4361 29.1221 38.4137 29.0144 38.4126C28.9068 38.4116 28.8001 38.432 28.7004 38.4727C28.6008 38.5134 28.5102 38.5735 28.4341 38.6495C28.3579 38.7256 28.2976 38.816 28.2568 38.9156C28.216 39.0152 28.1953 39.1219 28.1962 39.2295C28.197 39.3371 28.2193 39.4435 28.2617 39.5424C28.3041 39.6413 28.3658 39.7308 28.4431 39.8057L28.7394 40.1027C28.8142 40.1801 28.9035 40.242 29.0024 40.2845C29.1012 40.3271 29.2076 40.3495 29.3152 40.3505C29.4228 40.3516 29.5296 40.3312 29.6292 40.2905C29.7289 40.2498 29.8194 40.1897 29.8956 40.1137C29.9718 40.0376 30.032 39.9472 30.0729 39.8476C30.1137 39.748 30.1343 39.6413 30.1335 39.5337C30.1326 39.4261 30.1103 39.3197 30.0679 39.2208C30.0256 39.1218 29.9639 39.0324 29.8865 38.9575L29.5902 38.6605Z" fill="#A1876C"/>
<path d="M70.0526 63.6766L62.3291 71.3995L31.8584 40.9287C31.7831 40.8534 31.6937 40.7937 31.5954 40.753C31.497 40.7123 31.3916 40.6913 31.2851 40.6913C31.1787 40.6913 31.0733 40.7123 30.9749 40.753C30.8766 40.7937 30.7872 40.8534 30.7119 40.9287C30.6366 41.004 30.5769 41.0934 30.5362 41.1917C30.4955 41.2901 30.4745 41.3955 30.4745 41.5019C30.4745 41.6084 30.4955 41.7138 30.5362 41.8122C30.5769 41.9105 30.6366 41.9999 30.7119 42.0752L61.7559 73.1191C61.8311 73.1944 61.9205 73.2541 62.0189 73.2949C62.1172 73.3356 62.2226 73.3566 62.3291 73.3566C62.4356 73.3566 62.541 73.3356 62.6393 73.2949C62.7377 73.2541 62.827 73.1944 62.9023 73.1191L71.1984 64.8223C71.2737 64.7471 71.3334 64.6577 71.3741 64.5594C71.4149 64.461 71.4359 64.3556 71.4359 64.2491C71.4359 64.1427 71.4149 64.0373 71.3741 63.9389C71.3334 63.8406 71.2737 63.7512 71.1984 63.6759C71.1231 63.6006 71.0338 63.5409 70.9354 63.5002C70.8371 63.4594 70.7317 63.4385 70.6252 63.4385C70.5187 63.4385 70.4133 63.4594 70.315 63.5002C70.2166 63.5409 70.1273 63.6006 70.052 63.6759L70.0526 63.6766Z" fill="#A1876C"/>
<path d="M73.1191 61.7558L62.8809 51.5177L58.6012 47.238L50.0244 38.6617L45.7447 34.3821L41.465 30.1024L32.8836 21.5209L28.6039 17.2413L26.3836 15.021C26.2316 14.869 26.0254 14.7836 25.8104 14.7836C25.5954 14.7836 25.3892 14.869 25.2372 15.021C25.0852 15.173 24.9998 15.3792 24.9998 15.5942C24.9998 15.8092 25.0852 16.0154 25.2372 16.1674L26.8855 17.8164L25.3941 19.3078C25.3167 19.3826 25.2549 19.472 25.2124 19.5709C25.1699 19.6698 25.1475 19.7761 25.1465 19.8837C25.1456 19.9914 25.166 20.0981 25.2068 20.1977C25.2475 20.2973 25.3077 20.3879 25.3837 20.464C25.4598 20.5401 25.5503 20.6003 25.6499 20.6411C25.7495 20.6819 25.8562 20.7024 25.9639 20.7015C26.0715 20.7006 26.1778 20.6783 26.2768 20.6358C26.3757 20.5934 26.4651 20.5317 26.5399 20.4543L28.0313 18.9629L31.1704 22.1019L27.6163 25.656C27.541 25.7313 27.4813 25.8207 27.4406 25.919C27.3998 26.0174 27.3789 26.1228 27.3789 26.2292C27.3789 26.3357 27.3998 26.4411 27.4406 26.5395C27.4813 26.6378 27.541 26.7272 27.6163 26.8025C27.6916 26.8777 27.7809 26.9375 27.8793 26.9782C27.9777 27.0189 28.0831 27.0399 28.1895 27.0399C28.296 27.0399 28.4014 27.0189 28.4997 26.9782C28.5981 26.9375 28.6875 26.8777 28.7627 26.8025L32.3168 23.2484L35.4559 26.3875L33.9645 27.8789C33.8871 27.9536 33.8253 28.043 33.7828 28.1419C33.7403 28.2408 33.7179 28.3472 33.7169 28.4548C33.716 28.5624 33.7364 28.6691 33.7772 28.7688C33.8179 28.8684 33.8781 28.9589 33.9541 29.035C34.0302 29.1112 34.1207 29.1714 34.2203 29.2121C34.3199 29.2529 34.4266 29.2735 34.5343 29.2726C34.6419 29.2717 34.7482 29.2493 34.8471 29.2069C34.946 29.1644 35.0355 29.1027 35.1103 29.0253L36.6017 27.5339L39.7408 30.673L36.1867 34.2271C36.1093 34.3019 36.0476 34.3913 36.0051 34.4902C35.9627 34.5891 35.9404 34.6955 35.9394 34.8031C35.9385 34.9107 35.9591 35.0175 35.9999 35.1171C36.0406 35.2167 36.1009 35.3072 36.177 35.3832C36.2531 35.4593 36.3436 35.5195 36.4433 35.5602C36.5429 35.6009 36.6496 35.6214 36.7572 35.6204C36.8649 35.6195 36.9712 35.5971 37.0701 35.5546C37.169 35.5121 37.2584 35.4503 37.3331 35.3729L40.8872 31.8188L44.0185 34.9507L42.5271 36.4421C42.4518 36.5174 42.3921 36.6068 42.3514 36.7051C42.3107 36.8035 42.2897 36.9089 42.2897 37.0154C42.2897 37.1218 42.3107 37.2272 42.3514 37.3256C42.3921 37.4239 42.4518 37.5133 42.5271 37.5886C42.6024 37.6639 42.6918 37.7236 42.7901 37.7643C42.8885 37.805 42.9939 37.826 43.1003 37.826C43.2068 37.826 43.3122 37.805 43.4106 37.7643C43.5089 37.7236 43.5983 37.6639 43.6736 37.5886L45.165 36.0972L48.3041 39.2304L44.75 42.7845C44.6726 42.8593 44.6108 42.9488 44.5684 43.0477C44.5259 43.1466 44.5036 43.2529 44.5027 43.3605C44.5018 43.4682 44.5223 43.5749 44.5631 43.6745C44.6039 43.7741 44.6641 43.8646 44.7402 43.9407C44.8164 44.0167 44.9069 44.0769 45.0065 44.1176C45.1061 44.1584 45.2129 44.1788 45.3205 44.1779C45.4281 44.1769 45.5345 44.1545 45.6334 44.112C45.7322 44.0695 45.8217 44.0077 45.8964 43.9303L49.4505 40.3762L52.5883 43.5185L51.0969 45.0099C51.0216 45.0853 50.962 45.1747 50.9213 45.2732C50.8807 45.3716 50.8598 45.477 50.8599 45.5835C50.8599 45.69 50.881 45.7954 50.9218 45.8938C50.9627 45.9921 51.0225 46.0815 51.0978 46.1567C51.1732 46.2319 51.2627 46.2916 51.3611 46.3323C51.4595 46.3729 51.5649 46.3938 51.6714 46.3937C51.7779 46.3936 51.8833 46.3726 51.9817 46.3317C52.08 46.2909 52.1694 46.2311 52.2446 46.1557L53.736 44.6643L56.8751 47.8034L53.3204 51.3562C53.245 51.4316 53.1851 51.5211 53.1443 51.6196C53.1035 51.7182 53.0825 51.8238 53.0825 51.9304C53.0825 52.037 53.1035 52.1426 53.1443 52.2411C53.1851 52.3397 53.245 52.4292 53.3204 52.5046C53.3958 52.58 53.4853 52.6398 53.5838 52.6806C53.6823 52.7214 53.7879 52.7424 53.8946 52.7424C54.0012 52.7424 54.1068 52.7214 54.2053 52.6806C54.3038 52.6398 54.3933 52.58 54.4688 52.5046L58.0228 48.9505L61.1619 52.0896L59.6705 53.581C59.593 53.6557 59.5312 53.7451 59.4887 53.8439C59.4461 53.9428 59.4236 54.0491 59.4226 54.1568C59.4216 54.2644 59.442 54.3711 59.4827 54.4708C59.5234 54.5704 59.5835 54.661 59.6595 54.7371C59.7355 54.8133 59.826 54.8736 59.9256 54.9144C60.0251 54.9552 60.1319 54.9758 60.2395 54.975C60.3471 54.9742 60.4535 54.9519 60.5524 54.9095C60.6513 54.8671 60.7408 54.8054 60.8157 54.7281L62.3071 53.2367L65.4461 56.3758L63.9547 57.8672C63.8795 57.9424 63.8198 58.0318 63.779 58.1302C63.7383 58.2285 63.7173 58.3339 63.7173 58.4404C63.7173 58.5468 63.7383 58.6523 63.779 58.7506C63.8198 58.849 63.8795 58.9383 63.9547 59.0136C64.03 59.0889 64.1194 59.1486 64.2177 59.1893C64.3161 59.2301 64.4215 59.251 64.528 59.251C64.6344 59.251 64.7398 59.2301 64.8382 59.1893C64.9365 59.1486 65.0259 59.0889 65.1012 59.0136L66.5926 57.5222L71.9746 62.9042C72.1266 63.0563 72.3328 63.1417 72.5478 63.1417C72.7628 63.1417 72.969 63.0563 73.1211 62.9042C73.2731 62.7522 73.3585 62.546 73.3585 62.331C73.3585 62.116 73.2731 61.9098 73.1211 61.7578L73.1191 61.7558Z" fill="#A1876C"/>
<path d="M63.0372 61.0757L63.3524 60.7586C63.5044 60.6066 63.5898 60.4004 63.5898 60.1854C63.5898 59.9704 63.5044 59.7642 63.3524 59.6122C63.2003 59.4602 62.9942 59.3748 62.7792 59.3748C62.5642 59.3748 62.358 59.4602 62.2059 59.6122L61.8901 59.928C61.8149 60.0033 61.7552 60.0926 61.7144 60.191C61.6737 60.2893 61.6527 60.3947 61.6527 60.5012C61.6527 60.6077 61.6737 60.7131 61.7144 60.8114C61.7552 60.9098 61.8149 60.9991 61.8901 61.0744C61.9654 61.1497 62.0548 61.2094 62.1531 61.2501C62.2515 61.2909 62.3569 61.3118 62.4634 61.3118C62.5698 61.3118 62.6752 61.2909 62.7736 61.2501C62.8719 61.2094 62.9613 61.1497 63.0366 61.0744L63.0372 61.0757Z" fill="#A1876C"/>
</svg>
