<svg width="45" height="45" viewBox="0 0 45 45" fill="none" xmlns="http://www.w3.org/2000/svg">
<path d="M37.5 14.1211C36.4062 14.6094 35.2246 14.9414 33.9551 15.1172C35.2832 14.3359 36.1914 13.1934 36.6797 11.6895C35.4102 12.4316 34.1016 12.9297 32.7539 13.1836C31.5625 11.8945 30.0684 11.25 28.2715 11.25C26.5723 11.25 25.1221 11.8506 23.9209 13.0518C22.7197 14.2529 22.1191 15.7031 22.1191 17.4023C22.1191 17.9688 22.168 18.4375 22.2656 18.8086C19.7461 18.6719 17.3828 18.0371 15.1758 16.9043C12.9688 15.7715 11.0938 14.2578 9.55078 12.3633C8.98438 13.3398 8.70117 14.375 8.70117 15.4688C8.70117 17.6953 9.58984 19.4043 11.3672 20.5957C10.4492 20.5762 9.47266 20.3223 8.4375 19.834V19.8926C8.4375 21.3574 8.92578 22.6611 9.90234 23.8037C10.8789 24.9463 12.0801 25.6543 13.5059 25.9277C12.9395 26.084 12.4414 26.1621 12.0117 26.1621C11.7578 26.1621 11.377 26.123 10.8691 26.0449C11.2793 27.2754 12.0068 28.291 13.0518 29.0918C14.0967 29.8926 15.2832 30.3027 16.6113 30.3223C14.3457 32.0801 11.7969 32.959 8.96484 32.959C8.45703 32.959 7.96875 32.9297 7.5 32.8711C10.3906 34.707 13.5352 35.625 16.9336 35.625C19.1211 35.625 21.1719 35.2783 23.0859 34.585C25 33.8916 26.6406 32.9639 28.0078 31.8018C29.375 30.6396 30.5518 29.3018 31.5381 27.7881C32.5244 26.2744 33.2568 24.6924 33.7354 23.042C34.2139 21.3916 34.4531 19.7461 34.4531 18.1055C34.4531 17.7539 34.4434 17.4902 34.4238 17.3145C35.6543 16.4355 36.6797 15.3711 37.5 14.1211ZM45 8.4375V36.5625C45 38.8867 44.1748 40.874 42.5244 42.5244C40.874 44.1748 38.8867 45 36.5625 45H8.4375C6.11328 45 4.12598 44.1748 2.47559 42.5244C0.825195 40.874 0 38.8867 0 36.5625V8.4375C0 6.11328 0.825195 4.12598 2.47559 2.47559C4.12598 0.825195 6.11328 0 8.4375 0H36.5625C38.8867 0 40.874 0.825195 42.5244 2.47559C44.1748 4.12598 45 6.11328 45 8.4375Z" fill="white"/>
</svg>
