<svg width="127" height="52" viewBox="0 0 127 52" fill="none" xmlns="http://www.w3.org/2000/svg">
<path fill-rule="evenodd" clip-rule="evenodd" d="M118.425 24.762H127L97.6011 0L67.231 24.762H76.0888L97.6011 7.22217L118.425 24.762Z" fill="white"/>
<path fill-rule="evenodd" clip-rule="evenodd" d="M83.4165 1.1792H73.4563V14.3642L83.4165 6.30142V1.1792Z" fill="white"/>
<path d="M10.6798 43.8572L5.99823 28.6022H5.87853C6.047 31.7055 6.13123 33.7759 6.13123 34.8133V43.8572H2.44717V24.4128H8.05971L12.6615 39.282H12.7413L17.6223 24.4128H23.2348V43.8572H19.3912V34.6537C19.3912 34.2192 19.3956 33.7183 19.4045 33.1508C19.4222 32.5833 19.4843 31.076 19.5907 28.6288H19.471L14.4569 43.8572H10.6798ZM25.6953 28.9879H30.1375L32.9437 37.3536C33.1831 38.0806 33.3472 38.9407 33.4358 39.9337H33.5156C33.6132 39.0205 33.8038 38.1604 34.0875 37.3536L36.8406 28.9879H41.1896L34.8988 45.7591C34.3225 47.3107 33.4979 48.4722 32.425 49.2436C31.361 50.015 30.1153 50.4007 28.6878 50.4007C27.9873 50.4007 27.3002 50.3253 26.6263 50.1746V46.956C27.114 47.0713 27.646 47.1289 28.2223 47.1289C28.9405 47.1289 29.5656 46.9073 30.0976 46.4639C30.6384 46.0295 31.0596 45.3689 31.361 44.4823L31.6004 43.7508L25.6953 28.9879ZM59.5833 43.8572H55.4737V35.465H47.7731V43.8572H43.6501V24.4128H47.7731V32.0336H55.4737V24.4128H59.5833V43.8572ZM67.4169 36.396C67.4169 37.8678 67.6563 38.9806 68.1351 39.7342C68.6228 40.4879 69.4119 40.8647 70.5025 40.8647C71.5842 40.8647 72.3601 40.4923 72.83 39.7475C73.3088 38.9939 73.5482 37.8767 73.5482 36.396C73.5482 34.9241 73.3088 33.8202 72.83 33.0843C72.3512 32.3484 71.5665 31.9804 70.4759 31.9804C69.3942 31.9804 68.6139 32.3484 68.1351 33.0843C67.6563 33.8114 67.4169 34.9152 67.4169 36.396ZM77.6977 36.396C77.6977 38.8165 77.0593 40.7095 75.7826 42.075C74.5058 43.4404 72.728 44.1232 70.4493 44.1232C69.0218 44.1232 67.7627 43.8128 66.6722 43.1922C65.5816 42.5627 64.7437 41.6627 64.1585 40.4923C63.5733 39.3219 63.2807 37.9565 63.2807 36.396C63.2807 33.9665 63.9147 32.0779 65.1826 30.7302C66.4505 29.3825 68.2327 28.7086 70.5291 28.7086C71.9566 28.7086 73.2157 29.019 74.3063 29.6396C75.3969 30.2603 76.2347 31.1514 76.8199 32.3129C77.4051 33.4744 77.6977 34.8354 77.6977 36.396ZM94.3624 43.8572H90.306V35.1724C90.306 34.0995 90.1242 33.2971 89.7607 32.7651C89.406 32.2242 88.843 31.9538 88.0716 31.9538C87.0342 31.9538 86.2806 32.3351 85.8106 33.0976C85.3407 33.8601 85.1057 35.1147 85.1057 36.8615V43.8572H81.0493V28.9879H84.1482L84.6935 30.8898H84.9196C85.3185 30.2071 85.8949 29.6751 86.6485 29.2938C87.4022 28.9037 88.2667 28.7086 89.242 28.7086C91.4675 28.7086 92.9748 29.4357 93.764 30.8898H94.123C94.522 30.1982 95.1072 29.6618 95.8786 29.2805C96.6589 28.8993 97.5367 28.7086 98.512 28.7086C100.197 28.7086 101.469 29.1431 102.329 30.012C103.198 30.8721 103.632 32.2553 103.632 34.1616V43.8572H99.5627V35.1724C99.5627 34.0995 99.3809 33.2971 99.0174 32.7651C98.6627 32.2242 98.0997 31.9538 97.3283 31.9538C96.3353 31.9538 95.5905 32.3085 95.0939 33.0178C94.6063 33.7271 94.3624 34.8532 94.3624 36.396V43.8572ZM113.966 31.5947C113.106 31.5947 112.433 31.8696 111.945 32.4193C111.457 32.9602 111.178 33.7316 111.107 34.7335H116.799C116.782 33.7316 116.52 32.9602 116.015 32.4193C115.509 31.8696 114.826 31.5947 113.966 31.5947ZM114.538 44.1232C112.144 44.1232 110.274 43.4626 108.926 42.1415C107.578 40.8204 106.904 38.9495 106.904 36.529C106.904 34.0375 107.525 32.1134 108.766 30.7568C110.016 29.3914 111.741 28.7086 113.94 28.7086C116.041 28.7086 117.677 29.3071 118.847 30.5041C120.018 31.7011 120.603 33.3547 120.603 35.465V37.4333H111.014C111.058 38.586 111.4 39.486 112.038 40.1332C112.676 40.7805 113.572 41.1041 114.725 41.1041C115.62 41.1041 116.467 41.011 117.265 40.8248C118.063 40.6386 118.896 40.3416 119.765 39.9337V43.0725C119.056 43.4271 118.298 43.6887 117.491 43.8572C116.684 44.0345 115.7 44.1232 114.538 44.1232Z" fill="white"/>
</svg>
